{
	"asset":{
		"generator":"Khronos glTF Blender I/O v3.5.30",
		"version":"2.0"
	},
	"scene":0,
	"scenes":[
		{
			"name":"Scene",
			"nodes":[
				0,
				1,
				3,
				4,
				5,
				6
			]
		}
	],
	"nodes":[
		{
			"mesh":0,
			"name":"\u7403",
			"translation":[
				0,
				0,
				-10
			]
		},
		{
			"mesh":1,
			"name":"\u7403.002",
			"rotation":[
				0.3535533845424652,
				-0.1464466005563736,
				-0.3535533845424652,
				0.8535534143447876
			],
			"translation":[
				0,
				0,
				-5
			]
		},
		{
			"mesh":2,
			"name":"\u7403.001",
			"translation":[
				0,
				15,
				0
			]
		},
		{
			"children":[
				2
			],
			"mesh":3,
			"name":"\u7403.003",
			"translation":[
				5,
				0,
				0
			]
		},
		{
			"mesh":4,
			"name":"\u7403.004",
			"translation":[
				10,
				0,
				0
			]
		},
		{
			"mesh":5,
			"name":"\u7403.005"
		},
		{
			"mesh":6,
			"name":"\u7403.006",
			"translation":[
				-10,
				0,
				0
			]
		}
	],
	"materials":[
		{
			"doubleSided":true,
			"name":"\u30de\u30c6\u30ea\u30a2\u30eb",
			"pbrMetallicRoughness":{
				"baseColorTexture":{
					"index":0
				},
				"metallicFactor":0,
				"roughnessFactor":0.5
			}
		}
	],
	"meshes":[
		{
			"name":"\u7403",
			"primitives":[
				{
					"attributes":{
						"POSITION":0,
						"TEXCOORD_0":1,
						"NORMAL":2
					},
					"indices":3
				}
			]
		},
		{
			"name":"\u7403.002",
			"primitives":[
				{
					"attributes":{
						"POSITION":4,
						"TEXCOORD_0":5,
						"NORMAL":6
					},
					"indices":3
				}
			]
		},
		{
			"name":"\u7403.001",
			"primitives":[
				{
					"attributes":{
						"POSITION":7,
						"TEXCOORD_0":8,
						"NORMAL":9
					},
					"indices":3
				}
			]
		},
		{
			"name":"\u7403.003",
			"primitives":[
				{
					"attributes":{
						"POSITION":10,
						"TEXCOORD_0":11,
						"NORMAL":12
					},
					"indices":3
				}
			]
		},
		{
			"name":"\u7403.004",
			"primitives":[
				{
					"attributes":{
						"POSITION":13,
						"TEXCOORD_0":14,
						"NORMAL":15
					},
					"indices":3
				}
			]
		},
		{
			"name":"\u7403.005",
			"primitives":[
				{
					"attributes":{
						"POSITION":16,
						"TEXCOORD_0":17,
						"NORMAL":18
					},
					"indices":3,
					"material":0
				}
			]
		},
		{
			"name":"\u7403.006",
			"primitives":[
				{
					"attributes":{
						"POSITION":19,
						"TEXCOORD_0":20,
						"NORMAL":21
					},
					"indices":3
				}
			]
		}
	],
	"textures":[
		{
			"sampler":0,
			"source":0
		}
	],
	"images":[
		{
			"mimeType":"image/png",
			"name":"post",
			"uri":"post.png"
		}
	],
	"accessors":[
		{
			"bufferView":0,
			"componentType":5126,
			"count":2346,
			"max":[
				0.9999995827674866,
				5.489200115203857,
				0.9999993443489075
			],
			"min":[
				-0.9999991655349731,
				-5.510799884796143,
				-1
			],
			"type":"VEC3"
		},
		{
			"bufferView":1,
			"componentType":5126,
			"count":2346,
			"type":"VEC2"
		},
		{
			"bufferView":2,
			"componentType":5126,
			"count":2346,
			"type":"VEC3"
		},
		{
			"bufferView":3,
			"componentType":5123,
			"count":3456,
			"type":"SCALAR"
		},
		{
			"bufferView":4,
			"componentType":5126,
			"count":2346,
			"max":[
				0.9999995827674866,
				5.489200115203857,
				0.9999993443489075
			],
			"min":[
				-0.9999991655349731,
				-5.510799884796143,
				-1
			],
			"type":"VEC3"
		},
		{
			"bufferView":5,
			"componentType":5126,
			"count":2346,
			"type":"VEC2"
		},
		{
			"bufferView":6,
			"componentType":5126,
			"count":2346,
			"type":"VEC3"
		},
		{
			"bufferView":7,
			"componentType":5126,
			"count":2346,
			"max":[
				0.9999995827674866,
				5.489200115203857,
				0.9999993443489075
			],
			"min":[
				-0.9999991655349731,
				-5.510799884796143,
				-1
			],
			"type":"VEC3"
		},
		{
			"bufferView":8,
			"componentType":5126,
			"count":2346,
			"type":"VEC2"
		},
		{
			"bufferView":9,
			"componentType":5126,
			"count":2346,
			"type":"VEC3"
		},
		{
			"bufferView":10,
			"componentType":5126,
			"count":2346,
			"max":[
				0.9999995827674866,
				5.489200115203857,
				0.9999993443489075
			],
			"min":[
				-0.9999991655349731,
				-5.510799884796143,
				-1
			],
			"type":"VEC3"
		},
		{
			"bufferView":11,
			"componentType":5126,
			"count":2346,
			"type":"VEC2"
		},
		{
			"bufferView":12,
			"componentType":5126,
			"count":2346,
			"type":"VEC3"
		},
		{
			"bufferView":13,
			"componentType":5126,
			"count":2346,
			"max":[
				0.9999995827674866,
				5.489200115203857,
				0.9999993443489075
			],
			"min":[
				-0.9999991655349731,
				-5.510799884796143,
				-1
			],
			"type":"VEC3"
		},
		{
			"bufferView":14,
			"componentType":5126,
			"count":2346,
			"type":"VEC2"
		},
		{
			"bufferView":15,
			"componentType":5126,
			"count":2346,
			"type":"VEC3"
		},
		{
			"bufferView":16,
			"componentType":5126,
			"count":2346,
			"max":[
				0.9999995827674866,
				5.489200115203857,
				0.9999993443489075
			],
			"min":[
				-0.9999991655349731,
				-5.510799884796143,
				-1
			],
			"type":"VEC3"
		},
		{
			"bufferView":17,
			"componentType":5126,
			"count":2346,
			"type":"VEC2"
		},
		{
			"bufferView":18,
			"componentType":5126,
			"count":2346,
			"type":"VEC3"
		},
		{
			"bufferView":19,
			"componentType":5126,
			"count":2346,
			"max":[
				0.9999995827674866,
				5.489200115203857,
				0.9999993443489075
			],
			"min":[
				-0.9999991655349731,
				-5.510799884796143,
				-1
			],
			"type":"VEC3"
		},
		{
			"bufferView":20,
			"componentType":5126,
			"count":2346,
			"type":"VEC2"
		},
		{
			"bufferView":21,
			"componentType":5126,
			"count":2346,
			"type":"VEC3"
		}
	],
	"bufferViews":[
		{
			"buffer":0,
			"byteLength":28152,
			"byteOffset":0,
			"target":34962
		},
		{
			"buffer":0,
			"byteLength":18768,
			"byteOffset":28152,
			"target":34962
		},
		{
			"buffer":0,
			"byteLength":28152,
			"byteOffset":46920,
			"target":34962
		},
		{
			"buffer":0,
			"byteLength":6912,
			"byteOffset":75072,
			"target":34963
		},
		{
			"buffer":0,
			"byteLength":28152,
			"byteOffset":81984,
			"target":34962
		},
		{
			"buffer":0,
			"byteLength":18768,
			"byteOffset":110136,
			"target":34962
		},
		{
			"buffer":0,
			"byteLength":28152,
			"byteOffset":128904,
			"target":34962
		},
		{
			"buffer":0,
			"byteLength":28152,
			"byteOffset":157056,
			"target":34962
		},
		{
			"buffer":0,
			"byteLength":18768,
			"byteOffset":185208,
			"target":34962
		},
		{
			"buffer":0,
			"byteLength":28152,
			"byteOffset":203976,
			"target":34962
		},
		{
			"buffer":0,
			"byteLength":28152,
			"byteOffset":232128,
			"target":34962
		},
		{
			"buffer":0,
			"byteLength":18768,
			"byteOffset":260280,
			"target":34962
		},
		{
			"buffer":0,
			"byteLength":28152,
			"byteOffset":279048,
			"target":34962
		},
		{
			"buffer":0,
			"byteLength":28152,
			"byteOffset":307200,
			"target":34962
		},
		{
			"buffer":0,
			"byteLength":18768,
			"byteOffset":335352,
			"target":34962
		},
		{
			"buffer":0,
			"byteLength":28152,
			"byteOffset":354120,
			"target":34962
		},
		{
			"buffer":0,
			"byteLength":28152,
			"byteOffset":382272,
			"target":34962
		},
		{
			"buffer":0,
			"byteLength":18768,
			"byteOffset":410424,
			"target":34962
		},
		{
			"buffer":0,
			"byteLength":28152,
			"byteOffset":429192,
			"target":34962
		},
		{
			"buffer":0,
			"byteLength":28152,
			"byteOffset":457344,
			"target":34962
		},
		{
			"buffer":0,
			"byteLength":18768,
			"byteOffset":485496,
			"target":34962
		},
		{
			"buffer":0,
			"byteLength":28152,
			"byteOffset":504264,
			"target":34962
		}
	],
	"samplers":[
		{
			"magFilter":9729,
			"minFilter":9987
		}
	],
	"buffers":[
		{
			"byteLength":532416,
			"uri":"Post.bin"
		}
	]
}
