{
	"asset":{
		"generator":"Khronos glTF Blender I/O v3.5.30",
		"version":"2.0"
	},
	"scene":0,
	"scenes":[
		{
			"name":"Scene",
			"nodes":[
				0
			]
		}
	],
	"nodes":[
		{
			"mesh":0,
			"name":"\u7403.005"
		}
	],
	"materials":[
		{
			"doubleSided":true,
			"name":"\u30de\u30c6\u30ea\u30a2\u30eb",
			"pbrMetallicRoughness":{
				"baseColorTexture":{
					"index":0
				},
				"metallicFactor":0,
				"roughnessFactor":0.5
			}
		}
	],
	"meshes":[
		{
			"name":"\u7403.005",
			"primitives":[
				{
					"attributes":{
						"POSITION":0,
						"TEXCOORD_0":1,
						"NORMAL":2
					},
					"indices":3,
					"material":0
				}
			]
		}
	],
	"textures":[
		{
			"sampler":0,
			"source":0
		}
	],
	"images":[
		{
			"mimeType":"image/png",
			"name":"post",
			"uri":"post.png"
		}
	],
	"accessors":[
		{
			"bufferView":0,
			"componentType":5126,
			"count":2348,
			"max":[
				0.9999995827674866,
				5.489200115203857,
				0.9999993443489075
			],
			"min":[
				-0.9999991655349731,
				-5.510799884796143,
				-1
			],
			"type":"VEC3"
		},
		{
			"bufferView":1,
			"componentType":5126,
			"count":2348,
			"type":"VEC2"
		},
		{
			"bufferView":2,
			"componentType":5126,
			"count":2348,
			"type":"VEC3"
		},
		{
			"bufferView":3,
			"componentType":5123,
			"count":3456,
			"type":"SCALAR"
		}
	],
	"bufferViews":[
		{
			"buffer":0,
			"byteLength":28176,
			"byteOffset":0,
			"target":34962
		},
		{
			"buffer":0,
			"byteLength":18784,
			"byteOffset":28176,
			"target":34962
		},
		{
			"buffer":0,
			"byteLength":28176,
			"byteOffset":46960,
			"target":34962
		},
		{
			"buffer":0,
			"byteLength":6912,
			"byteOffset":75136,
			"target":34963
		}
	],
	"samplers":[
		{
			"magFilter":9729,
			"minFilter":9987
		}
	],
	"buffers":[
		{
			"byteLength":82048,
			"uri":"Post.bin"
		}
	]
}
