{
	"asset":{
		"generator":"Khronos glTF Blender I/O v3.5.30",
		"version":"2.0"
	},
	"scene":0,
	"scenes":[
		{
			"name":"Scene",
			"nodes":[
				0
			]
		}
	],
	"nodes":[
		{
			"mesh":0,
			"name":"\u5e73\u9762"
		}
	],
	"meshes":[
		{
			"name":"\u5e73\u9762.003",
			"primitives":[
				{
					"attributes":{
						"POSITION":0,
						"TEXCOORD_0":1,
						"NORMAL":2
					},
					"indices":3
				}
			]
		}
	],
	"accessors":[
		{
			"bufferView":0,
			"componentType":5126,
			"count":4225,
			"max":[
				65.00001525878906,
				24.936044692993164,
				65.00001525878906
			],
			"min":[
				-65.00001525878906,
				0,
				-65.00001525878906
			],
			"type":"VEC3"
		},
		{
			"bufferView":1,
			"componentType":5126,
			"count":4225,
			"type":"VEC2"
		},
		{
			"bufferView":2,
			"componentType":5126,
			"count":4225,
			"type":"VEC3"
		},
		{
			"bufferView":3,
			"componentType":5123,
			"count":24576,
			"type":"SCALAR"
		}
	],
	"bufferViews":[
		{
			"buffer":0,
			"byteLength":50700,
			"byteOffset":0,
			"target":34962
		},
		{
			"buffer":0,
			"byteLength":33800,
			"byteOffset":50700,
			"target":34962
		},
		{
			"buffer":0,
			"byteLength":50700,
			"byteOffset":84500,
			"target":34962
		},
		{
			"buffer":0,
			"byteLength":49152,
			"byteOffset":135200,
			"target":34963
		}
	],
	"buffers":[
		{
			"byteLength":184352,
			"uri":"backGround.bin"
		}
	]
}
