{
	"asset":{
		"generator":"Khronos glTF Blender I/O v3.5.30",
		"version":"2.0"
	},
	"scene":0,
	"scenes":[
		{
			"name":"Scene",
			"nodes":[
				0
			]
		}
	],
	"nodes":[
		{
			"mesh":0,
			"name":"Wheel_4_4_Cylinder.003"
		}
	],
	"materials":[
		{
			"doubleSided":true,
			"name":"Wheel",
			"pbrMetallicRoughness":{}
		}
	],
	"meshes":[
		{
			"name":"Wheel_4_4_Cylinder.003",
			"primitives":[
				{
					"attributes":{
						"POSITION":0,
						"NORMAL":1
					},
					"indices":2,
					"material":0
				}
			]
		}
	],
	"accessors":[
		{
			"bufferView":0,
			"componentType":5126,
			"count":197452,
			"max":[
				12.045557022094727,
				3.9195175170898438,
				6.250105381011963
			],
			"min":[
				-13.429369926452637,
				-4.8915252685546875,
				-6.250105381011963
			],
			"type":"VEC3"
		},
		{
			"bufferView":1,
			"componentType":5126,
			"count":197452,
			"type":"VEC3"
		},
		{
			"bufferView":2,
			"componentType":5125,
			"count":948600,
			"type":"SCALAR"
		}
	],
	"bufferViews":[
		{
			"buffer":0,
			"byteLength":2369424,
			"byteOffset":0,
			"target":34962
		},
		{
			"buffer":0,
			"byteLength":2369424,
			"byteOffset":2369424,
			"target":34962
		},
		{
			"buffer":0,
			"byteLength":3794400,
			"byteOffset":4738848,
			"target":34963
		}
	],
	"buffers":[
		{
			"byteLength":8533248,
			"uri":"baggy.bin"
		}
	]
}
