{
	"asset":{
		"generator":"Khronos glTF Blender I/O v3.5.30",
		"version":"2.0"
	},
	"scene":0,
	"scenes":[
		{
			"name":"Scene",
			"nodes":[
				34
			]
		}
	],
	"nodes":[
		{
			"name":"mixamorig:HeadTop_End",
			"rotation":[
				5.41513891505474e-08,
				3.552697585174503e-15,
				4.841518353761176e-15,
				1
			],
			"translation":[
				-9.443568842470995e-07,
				13.905353546142578,
				10.806930541992188
			]
		},
		{
			"children":[
				0
			],
			"name":"mixamorig:Head",
			"rotation":[
				-3.3845211078187276e-09,
				4.1460168631601846e-12,
				8.069059260484303e-16,
				1
			],
			"translation":[
				-1.7091603865537763e-07,
				2.4777562618255615,
				1.925659418106079
			]
		},
		{
			"children":[
				1
			],
			"name":"mixamorig:Neck",
			"rotation":[
				-0.05449257418513298,
				1.1902802299346149e-07,
				1.7321860612540263e-09,
				0.9985141754150391
			],
			"scale":[
				1,
				1.0000001192092896,
				0.9999999403953552
			],
			"translation":[
				6.859437462480855e-09,
				5.734194755554199,
				4.6975597456366813e-07
			]
		},
		{
			"name":"mixamorig:LeftHandIndex4",
			"rotation":[
				5.122274604474342e-09,
				3.14321368932724e-09,
				1.2747478628227782e-08,
				1
			],
			"scale":[
				1,
				0.9999999403953552,
				1
			],
			"translation":[
				-0.16806602478027344,
				0.7519170641899109,
				-0.11933162808418274
			]
		},
		{
			"children":[
				3
			],
			"name":"mixamorig:LeftHandIndex3",
			"rotation":[
				-3.282912075519562e-08,
				-9.998911991715431e-07,
				2.3457690900841044e-08,
				1
			],
			"scale":[
				0.9999999403953552,
				0.9999999403953552,
				1
			],
			"translation":[
				-0.2067386955022812,
				1.058361530303955,
				-0.06503117084503174
			]
		},
		{
			"children":[
				4
			],
			"name":"mixamorig:LeftHandIndex2",
			"rotation":[
				3.029126673936844e-07,
				-9.549548849463463e-07,
				-9.275390766561031e-07,
				1
			],
			"translation":[
				2.5033950805664062e-06,
				0.6641646027565002,
				-2.980232238769531e-07
			]
		},
		{
			"children":[
				5
			],
			"name":"mixamorig:LeftHandIndex1",
			"rotation":[
				0.08676010370254517,
				-0.0008859746158123016,
				-0.010203965939581394,
				0.9961766004562378
			],
			"translation":[
				-1.1026859283447266e-06,
				3.822638511657715,
				-1.1920928955078125e-07
			]
		},
		{
			"children":[
				6
			],
			"name":"mixamorig:LeftHand",
			"rotation":[
				-0.054490827023983,
				0.0015557524748146534,
				-0.02866668999195099,
				0.9981014728546143
			],
			"scale":[
				1.0000001192092896,
				0.9999999403953552,
				1
			],
			"translation":[
				8.851289749145508e-06,
				7.570692539215088,
				-9.08970832824707e-07
			]
		},
		{
			"children":[
				7
			],
			"name":"mixamorig:LeftForeArm",
			"rotation":[
				0.16667594015598297,
				0.659287691116333,
				0.17970818281173706,
				0.7108191847801208
			],
			"translation":[
				-1.862645149230957e-07,
				13.039606094360352,
				2.2351741790771484e-07
			]
		},
		{
			"children":[
				8
			],
			"name":"mixamorig:LeftArm",
			"rotation":[
				0.49296560883522034,
				-0.040945351123809814,
				0.023231690749526024,
				0.8687742948532104
			],
			"scale":[
				1.0000001192092896,
				1.0000001192092896,
				1
			],
			"translation":[
				-1.5720725059509277e-06,
				8.119829177856445,
				5.424022674560547e-06
			]
		},
		{
			"children":[
				9
			],
			"name":"mixamorig:LeftShoulder",
			"rotation":[
				0.48142674565315247,
				0.5180308818817139,
				-0.48490816354751587,
				0.5145254135131836
			],
			"scale":[
				1,
				1.0000001192092896,
				1
			],
			"translation":[
				4.026516914367676,
				6.012417316436768,
				-0.02938951924443245
			]
		},
		{
			"name":"mixamorig:RightHandIndex4",
			"rotation":[
				-1.1175872671742582e-08,
				3.725290298461914e-09,
				-1.6298145055770874e-08,
				1
			],
			"scale":[
				1,
				0.9999999403953552,
				0.9999999403953552
			],
			"translation":[
				0.15039661526679993,
				0.7499855756759644,
				-0.00964587926864624
			]
		},
		{
			"children":[
				11
			],
			"name":"mixamorig:RightHandIndex3",
			"rotation":[
				-2.8312206268310547e-07,
				1.0682269930839539e-06,
				-1.4528632164001465e-07,
				1
			],
			"scale":[
				1,
				1,
				0.9999999403953552
			],
			"translation":[
				0.2439352422952652,
				1.0166199207305908,
				-0.1232101321220398
			]
		},
		{
			"children":[
				12
			],
			"name":"mixamorig:RightHandIndex2",
			"rotation":[
				4.7124922275543213e-07,
				1.980923116207123e-06,
				8.719507604837418e-07,
				1
			],
			"translation":[
				3.1441450119018555e-06,
				0.7233889698982239,
				-3.5762786865234375e-07
			]
		},
		{
			"children":[
				13
			],
			"name":"mixamorig:RightHandIndex1",
			"rotation":[
				0.08919065445661545,
				0.002834019251167774,
				0.031628020107746124,
				0.9955082535743713
			],
			"scale":[
				1,
				0.9999998807907104,
				1
			],
			"translation":[
				-2.339482307434082e-06,
				3.7936646938323975,
				-1.1920928955078125e-07
			]
		},
		{
			"children":[
				14
			],
			"name":"mixamorig:RightHand",
			"rotation":[
				-0.01963820308446884,
				-0.0004723697202280164,
				0.024105055257678032,
				0.9995164275169373
			],
			"scale":[
				1,
				0.9999999403953552,
				1
			],
			"translation":[
				-6.884336471557617e-06,
				7.573541641235352,
				1.7881393432617188e-07
			]
		},
		{
			"children":[
				15
			],
			"name":"mixamorig:RightForeArm",
			"rotation":[
				0.16503168642520905,
				-0.6516797542572021,
				-0.18174289166927338,
				0.7176681756973267
			],
			"scale":[
				1,
				1.0000001192092896,
				1
			],
			"translation":[
				5.4016709327697754e-08,
				13.039196014404297,
				1.4180317521095276e-05
			]
		},
		{
			"children":[
				16
			],
			"name":"mixamorig:RightArm",
			"rotation":[
				0.49291151762008667,
				0.042504895478487015,
				-0.0241159088909626,
				0.8687059879302979
			],
			"scale":[
				1,
				1,
				0.9999999403953552
			],
			"translation":[
				5.885958671569824e-07,
				8.119829177856445,
				1.6987323760986328e-06
			]
		},
		{
			"children":[
				17
			],
			"name":"mixamorig:RightShoulder",
			"rotation":[
				0.48131439089775085,
				-0.5181503891944885,
				0.48504915833473206,
				0.5143773555755615
			],
			"scale":[
				1,
				1,
				1.0000001192092896
			],
			"translation":[
				-4.026515483856201,
				6.012186050415039,
				-0.031500693410634995
			]
		},
		{
			"children":[
				2,
				10,
				18
			],
			"name":"mixamorig:Spine2",
			"rotation":[
				-3.725290298461914e-09,
				-1.1920926823449918e-07,
				4.707645008205871e-16,
				1
			],
			"translation":[
				7.882334784881095e-10,
				5.097062110900879,
				-7.111553372851631e-07
			]
		},
		{
			"children":[
				19
			],
			"name":"mixamorig:Spine1",
			"rotation":[
				2.2351738238057806e-08,
				-3.858025010572419e-15,
				3.1713277769368324e-15,
				1
			],
			"scale":[
				1,
				1.0000001192092896,
				1.0000001192092896
			],
			"translation":[
				4.513395879257587e-09,
				4.459925651550293,
				4.809375582226494e-07
			]
		},
		{
			"children":[
				20
			],
			"name":"mixamorig:Spine",
			"rotation":[
				-0.9985141158103943,
				-1.7794814510807555e-09,
				-1.199040724486622e-07,
				0.05449344962835312
			],
			"scale":[
				1,
				1,
				1.0000348091125488
			],
			"translation":[
				5.9083777870228005e-08,
				-3.80009126663208,
				-0.41602280735969543
			]
		},
		{
			"name":"mixamorig:LeftToe_End",
			"rotation":[
				-1.613898348296061e-08,
				-2.1609594114124775e-09,
				2.5811459636315703e-09,
				1
			],
			"scale":[
				1,
				1,
				1.0000001192092896
			],
			"translation":[
				1.6693957149982452e-07,
				4.044490337371826,
				6.705522537231445e-08
			]
		},
		{
			"children":[
				22
			],
			"name":"mixamorig:LeftToeBase",
			"rotation":[
				0.21803300082683563,
				-0.07774032652378082,
				0.017426159232854843,
				0.9726841449737549
			],
			"scale":[
				1,
				0.9999998807907104,
				0.9999999403953552
			],
			"translation":[
				-9.5367431640625e-07,
				10.285329818725586,
				-6.854534149169922e-07
			]
		},
		{
			"children":[
				23
			],
			"name":"mixamorig:LeftFoot",
			"rotation":[
				0.4589773118495941,
				0.040215566754341125,
				-0.020802874118089676,
				0.8872935771942139
			],
			"scale":[
				1,
				0.9999998807907104,
				0.9999999403953552
			],
			"translation":[
				2.738088369369507e-07,
				4.800522804260254,
				-2.4586915969848633e-07
			]
		},
		{
			"children":[
				24
			],
			"name":"mixamorig:LeftLeg",
			"rotation":[
				0.056325849145650864,
				-0.005574147216975689,
				-0.0983140841126442,
				0.9935445189476013
			],
			"scale":[
				0.9999999403953552,
				0.9999998807907104,
				0.9999999403953552
			],
			"translation":[
				3.5315752029418945e-06,
				6.3087053298950195,
				1.6769306512287585e-06
			]
		},
		{
			"children":[
				25
			],
			"name":"mixamorig:LeftUpLeg",
			"rotation":[
				0.16444534063339233,
				0.9860870242118835,
				-0.023960882797837257,
				0.003995880018919706
			],
			"scale":[
				1,
				0.9999999403953552,
				1
			],
			"translation":[
				3.662980556488037,
				2.1114163398742676,
				0.06561172008514404
			]
		},
		{
			"name":"mixamorig:RightToe_End",
			"rotation":[
				-7.952803571242839e-08,
				-4.898793122265488e-07,
				2.911128831328824e-07,
				1
			],
			"scale":[
				1,
				1,
				0.9999999403953552
			],
			"translation":[
				3.861496224999428e-07,
				4.093896389007568,
				1.1548399925231934e-07
			]
		},
		{
			"children":[
				27
			],
			"name":"mixamorig:RightToeBase",
			"rotation":[
				0.22242356836795807,
				0.08118850737810135,
				-0.01858999952673912,
				0.9713859558105469
			],
			"scale":[
				1.0000001192092896,
				1,
				1.0000001192092896
			],
			"translation":[
				-1.1473894119262695e-06,
				10.107903480529785,
				-1.043081283569336e-06
			]
		},
		{
			"children":[
				28
			],
			"name":"mixamorig:RightFoot",
			"rotation":[
				0.433907151222229,
				-0.042418692260980606,
				0.0204570684581995,
				0.8997259140014648
			],
			"translation":[
				-1.912936568260193e-06,
				4.842099666595459,
				-5.066394805908203e-07
			]
		},
		{
			"children":[
				29
			],
			"name":"mixamorig:RightLeg",
			"rotation":[
				0.08765985816717148,
				0.00868232175707817,
				0.0981767326593399,
				0.9912627339363098
			],
			"scale":[
				0.9999999403953552,
				0.9999998211860657,
				1
			],
			"translation":[
				-1.2665987014770508e-06,
				6.305631160736084,
				-6.187633516674396e-07
			]
		},
		{
			"children":[
				30
			],
			"name":"mixamorig:RightUpLeg",
			"rotation":[
				0.1645500510931015,
				-0.9862077832221985,
				0.017576254904270172,
				0.002932274714112282
			],
			"scale":[
				1,
				1,
				0.9999999403953552
			],
			"translation":[
				-3.6629812717437744,
				2.111415386199951,
				-0.06671218574047089
			]
		},
		{
			"children":[
				21,
				26,
				31
			],
			"name":"mixamorig:Hips",
			"rotation":[
				5.400064040372854e-08,
				-0.7071067690849304,
				-0.7071067690849304,
				5.400064040372854e-08
			],
			"translation":[
				-0.046898841857910156,
				4.053579807281494,
				-17.874637603759766
			]
		},
		{
			"mesh":0,
			"name":"Sphere.001",
			"skin":0
		},
		{
			"children":[
				33,
				32
			],
			"name":"Armature",
			"rotation":[
				0.70710688829422,
				0,
				0,
				0.7071066498756409
			]
		}
	],
	"materials":[
		{
			"name":"material",
			"pbrMetallicRoughness":{}
		}
	],
	"meshes":[
		{
			"name":"Sphere.001mesh",
			"primitives":[
				{
					"attributes":{
						"POSITION":0,
						"TEXCOORD_0":1,
						"NORMAL":2,
						"JOINTS_0":3,
						"WEIGHTS_0":4
					},
					"indices":5,
					"material":0
				}
			]
		}
	],
	"skins":[
		{
			"inverseBindMatrices":6,
			"joints":[
				32,
				21,
				20,
				19,
				2,
				1,
				0,
				10,
				9,
				8,
				7,
				6,
				5,
				4,
				3,
				18,
				17,
				16,
				15,
				14,
				13,
				12,
				11,
				26,
				25,
				24,
				23,
				22,
				31,
				30,
				29,
				28,
				27
			],
			"name":"Armature"
		}
	],
	"accessors":[
		{
			"bufferView":0,
			"componentType":5126,
			"count":188465,
			"max":[
				23.449810028076172,
				53.39159393310547,
				12.363579750061035
			],
			"min":[
				-23.54361343383789,
				-0.037265971302986145,
				-22.82905387878418
			],
			"type":"VEC3"
		},
		{
			"bufferView":1,
			"componentType":5126,
			"count":188465,
			"type":"VEC2"
		},
		{
			"bufferView":2,
			"componentType":5126,
			"count":188465,
			"type":"VEC3"
		},
		{
			"bufferView":3,
			"componentType":5121,
			"count":188465,
			"type":"VEC4"
		},
		{
			"bufferView":4,
			"componentType":5126,
			"count":188465,
			"type":"VEC4"
		},
		{
			"bufferView":5,
			"componentType":5125,
			"count":232866,
			"type":"SCALAR"
		},
		{
			"bufferView":6,
			"componentType":5126,
			"count":33,
			"type":"MAT4"
		}
	],
	"bufferViews":[
		{
			"buffer":0,
			"byteLength":2261580,
			"byteOffset":0,
			"target":34962
		},
		{
			"buffer":0,
			"byteLength":1507720,
			"byteOffset":2261580,
			"target":34962
		},
		{
			"buffer":0,
			"byteLength":2261580,
			"byteOffset":3769300,
			"target":34962
		},
		{
			"buffer":0,
			"byteLength":753860,
			"byteOffset":6030880,
			"target":34962
		},
		{
			"buffer":0,
			"byteLength":3015440,
			"byteOffset":6784740,
			"target":34962
		},
		{
			"buffer":0,
			"byteLength":931464,
			"byteOffset":9800180,
			"target":34963
		},
		{
			"buffer":0,
			"byteLength":2112,
			"byteOffset":10731644
		}
	],
	"buffers":[
		{
			"byteLength":10733756,
			"uri":"boss_ts.bin"
		}
	]
}
