{
	"asset":{
		"generator":"Khronos glTF Blender I/O v3.5.30",
		"version":"2.0"
	},
	"extensionsUsed":[
		"KHR_materials_specular",
		"KHR_materials_ior"
	],
	"scene":0,
	"scenes":[
		{
			"name":"Scene",
			"nodes":[
				0
			]
		}
	],
	"nodes":[
		{
			"mesh":0,
			"name":"uploads_files_3531655_male_head"
		}
	],
	"materials":[
		{
			"doubleSided":true,
			"extensions":{
				"KHR_materials_specular":{
					"specularColorFactor":[
						0,
						0,
						0
					]
				},
				"KHR_materials_ior":{
					"ior":1.4500000476837158
				}
			},
			"name":"initialShadingGroup",
			"pbrMetallicRoughness":{
				"baseColorFactor":[
					0.800000011920929,
					0.800000011920929,
					0.800000011920929,
					1
				],
				"metallicFactor":0
			}
		}
	],
	"meshes":[
		{
			"name":"uploads_files_3531655_male_head",
			"primitives":[
				{
					"attributes":{
						"POSITION":0,
						"TEXCOORD_0":1,
						"NORMAL":2
					},
					"indices":3,
					"material":0
				}
			]
		}
	],
	"accessors":[
		{
			"bufferView":0,
			"componentType":5126,
			"count":22424,
			"max":[
				12.089573860168457,
				33.191043853759766,
				14.0364351272583
			],
			"min":[
				-12.167564392089844,
				0.09379799664020538,
				-8.468574523925781
			],
			"type":"VEC3"
		},
		{
			"bufferView":1,
			"componentType":5126,
			"count":22424,
			"type":"VEC2"
		},
		{
			"bufferView":2,
			"componentType":5126,
			"count":22424,
			"type":"VEC3"
		},
		{
			"bufferView":3,
			"componentType":5123,
			"count":132546,
			"type":"SCALAR"
		}
	],
	"bufferViews":[
		{
			"buffer":0,
			"byteLength":269088,
			"byteOffset":0,
			"target":34962
		},
		{
			"buffer":0,
			"byteLength":179392,
			"byteOffset":269088,
			"target":34962
		},
		{
			"buffer":0,
			"byteLength":269088,
			"byteOffset":448480,
			"target":34962
		},
		{
			"buffer":0,
			"byteLength":265092,
			"byteOffset":717568,
			"target":34963
		}
	],
	"buffers":[
		{
			"byteLength":982660,
			"uri":"boss.bin"
		}
	]
}
