{
	"asset":{
		"generator":"Khronos glTF Blender I/O v3.5.30",
		"version":"2.0"
	},
	"extensionsUsed":[
		"KHR_materials_transmission",
		"KHR_materials_specular"
	],
	"scene":0,
	"scenes":[
		{
			"name":"Scene",
			"nodes":[
				0
			]
		}
	],
	"nodes":[
		{
			"mesh":0,
			"name":"14054_Pirate_Ship_Cannon_on_Cart_v1_l3"
		}
	],
	"materials":[
		{
			"doubleSided":true,
			"extensions":{
				"KHR_materials_transmission":{
					"transmissionFactor":1
				},
				"KHR_materials_specular":{
					"specularColorTexture":{
						"index":0
					}
				}
			},
			"name":"03___14054_Pirate_Ship_Cannon_on_Cart_wheel",
			"pbrMetallicRoughness":{
				"baseColorTexture":{
					"index":1
				},
				"metallicFactor":0,
				"roughnessFactor":0.8267949223518372
			}
		}
	],
	"meshes":[
		{
			"name":"14054_Pirate_Ship_Cannon_on_Cart_v1_l3",
			"primitives":[
				{
					"attributes":{
						"POSITION":0,
						"NORMAL":1
					},
					"indices":2,
					"material":0
				}
			]
		}
	],
	"textures":[
		{
			"sampler":0,
			"source":0
		},
		{
			"sampler":0,
			"source":1
		}
	],
	"images":[
		{
			"mimeType":"image/png",
			"name":"Image",
			"uri":"Image.png"
		},
		{
			"mimeType":"image/jpeg",
			"name":"14054_Pirate_Ship_Cannon_on_Cart_wheel_diff",
			"uri":"14054_Pirate_Ship_Cannon_on_Cart_wheel_diff.jpg"
		}
	],
	"accessors":[
		{
			"bufferView":0,
			"componentType":5126,
			"count":30448,
			"max":[
				5.6957526206970215,
				5.415266990661621,
				10.623783111572266
			],
			"min":[
				-5.695433139801025,
				-4.985086917877197,
				-15.845703125
			],
			"type":"VEC3"
		},
		{
			"bufferView":1,
			"componentType":5126,
			"count":30448,
			"type":"VEC3"
		},
		{
			"bufferView":2,
			"componentType":5123,
			"count":149784,
			"type":"SCALAR"
		}
	],
	"bufferViews":[
		{
			"buffer":0,
			"byteLength":365376,
			"byteOffset":0,
			"target":34962
		},
		{
			"buffer":0,
			"byteLength":365376,
			"byteOffset":365376,
			"target":34962
		},
		{
			"buffer":0,
			"byteLength":299568,
			"byteOffset":730752,
			"target":34963
		}
	],
	"samplers":[
		{
			"magFilter":9729,
			"minFilter":9987
		}
	],
	"buffers":[
		{
			"byteLength":1030320,
			"uri":"cannon.bin"
		}
	]
}
