{
	"asset":{
		"generator":"Khronos glTF Blender I/O v3.5.30",
		"version":"2.0"
	},
	"extensionsUsed":[
		"KHR_materials_transmission",
		"KHR_materials_specular"
	],
	"scene":0,
	"scenes":[
		{
			"name":"Scene",
			"nodes":[
				0
			]
		}
	],
	"nodes":[
		{
			"mesh":0,
			"name":"14054_Pirate_Ship_Cannon_on_Cart_v1_l3"
		}
	],
	"materials":[
		{
			"doubleSided":true,
			"extensions":{
				"KHR_materials_transmission":{
					"transmissionFactor":1
				},
				"KHR_materials_specular":{
					"specularColorFactor":[
						1,
						1,
						1
					]
				}
			},
			"name":"03___14054_Pirate_Ship_Cannon_on_Cart_wheel",
			"pbrMetallicRoughness":{
				"baseColorTexture":{
					"index":0
				},
				"metallicFactor":0,
				"roughnessFactor":0.8267949223518372
			}
		},
		{
			"doubleSided":true,
			"extensions":{
				"KHR_materials_transmission":{
					"transmissionFactor":1
				},
				"KHR_materials_specular":{
					"specularColorFactor":[
						1,
						1,
						1
					]
				}
			},
			"name":"01_14054_Pirate_Ship_Cannon_on_Cart_cart",
			"pbrMetallicRoughness":{
				"baseColorTexture":{
					"index":1
				},
				"metallicFactor":0,
				"roughnessFactor":0.8267949223518372
			}
		},
		{
			"doubleSided":true,
			"extensions":{
				"KHR_materials_transmission":{
					"transmissionFactor":1
				},
				"KHR_materials_specular":{
					"specularColorFactor":[
						1,
						1,
						1
					]
				}
			},
			"name":"02___14054_Pirate_Ship_Cannon_on_Cart_barrel",
			"pbrMetallicRoughness":{
				"baseColorTexture":{
					"index":2
				},
				"metallicFactor":0,
				"roughnessFactor":0.8267949223518372
			}
		}
	],
	"meshes":[
		{
			"name":"14054_Pirate_Ship_Cannon_on_Cart_v1_l3",
			"primitives":[
				{
					"attributes":{
						"POSITION":0,
						"TEXCOORD_0":1,
						"NORMAL":2
					},
					"indices":3,
					"material":0
				},
				{
					"attributes":{
						"POSITION":4,
						"TEXCOORD_0":5,
						"NORMAL":6
					},
					"indices":7,
					"material":1
				},
				{
					"attributes":{
						"POSITION":8,
						"TEXCOORD_0":9,
						"NORMAL":10
					},
					"indices":11,
					"material":2
				}
			]
		}
	],
	"textures":[
		{
			"sampler":0,
			"source":0
		},
		{
			"sampler":0,
			"source":1
		},
		{
			"sampler":0,
			"source":2
		}
	],
	"images":[
		{
			"mimeType":"image/jpeg",
			"name":"14054_Pirate_Ship_Cannon_on_Cart_wheel_diff",
			"uri":"14054_Pirate_Ship_Cannon_on_Cart_wheel_diff.jpg"
		},
		{
			"mimeType":"image/jpeg",
			"name":"14054_Pirate_Ship_Cannon_on_Cart_cart_diff",
			"uri":"14054_Pirate_Ship_Cannon_on_Cart_cart_diff.jpg"
		},
		{
			"mimeType":"image/jpeg",
			"name":"14054_Pirate_Ship_Cannon_on_Cart_barrel_diff",
			"uri":"14054_Pirate_Ship_Cannon_on_Cart_barrel_diff.jpg"
		}
	],
	"accessors":[
		{
			"bufferView":0,
			"componentType":5126,
			"count":24604,
			"max":[
				31.39980697631836,
				-10.445537567138672,
				33.98239517211914
			],
			"min":[
				-55.6061897277832,
				-33.28923797607422,
				-33.98300552368164
			],
			"type":"VEC3"
		},
		{
			"bufferView":1,
			"componentType":5126,
			"count":24604,
			"type":"VEC2"
		},
		{
			"bufferView":2,
			"componentType":5126,
			"count":24604,
			"type":"VEC3"
		},
		{
			"bufferView":3,
			"componentType":5123,
			"count":138240,
			"type":"SCALAR"
		},
		{
			"bufferView":4,
			"componentType":5126,
			"count":26656,
			"max":[
				35.02970886230469,
				19.24866485595703,
				37.98439407348633
			],
			"min":[
				-71.92129516601562,
				-28.680036544799805,
				-37.98540496826172
			],
			"type":"VEC3"
		},
		{
			"bufferView":5,
			"componentType":5126,
			"count":26656,
			"type":"VEC2"
		},
		{
			"bufferView":6,
			"componentType":5126,
			"count":26656,
			"type":"VEC3"
		},
		{
			"bufferView":7,
			"componentType":5123,
			"count":146688,
			"type":"SCALAR"
		},
		{
			"bufferView":8,
			"componentType":5126,
			"count":33586,
			"max":[
				105.72941589355469,
				36.28736114501953,
				27.466896057128906
			],
			"min":[
				-62.829891204833984,
				-6.041837692260742,
				-27.46750259399414
			],
			"type":"VEC3"
		},
		{
			"bufferView":9,
			"componentType":5126,
			"count":33586,
			"type":"VEC2"
		},
		{
			"bufferView":10,
			"componentType":5126,
			"count":33586,
			"type":"VEC3"
		},
		{
			"bufferView":11,
			"componentType":5123,
			"count":184416,
			"type":"SCALAR"
		}
	],
	"bufferViews":[
		{
			"buffer":0,
			"byteLength":295248,
			"byteOffset":0,
			"target":34962
		},
		{
			"buffer":0,
			"byteLength":196832,
			"byteOffset":295248,
			"target":34962
		},
		{
			"buffer":0,
			"byteLength":295248,
			"byteOffset":492080,
			"target":34962
		},
		{
			"buffer":0,
			"byteLength":276480,
			"byteOffset":787328,
			"target":34963
		},
		{
			"buffer":0,
			"byteLength":319872,
			"byteOffset":1063808,
			"target":34962
		},
		{
			"buffer":0,
			"byteLength":213248,
			"byteOffset":1383680,
			"target":34962
		},
		{
			"buffer":0,
			"byteLength":319872,
			"byteOffset":1596928,
			"target":34962
		},
		{
			"buffer":0,
			"byteLength":293376,
			"byteOffset":1916800,
			"target":34963
		},
		{
			"buffer":0,
			"byteLength":403032,
			"byteOffset":2210176,
			"target":34962
		},
		{
			"buffer":0,
			"byteLength":268688,
			"byteOffset":2613208,
			"target":34962
		},
		{
			"buffer":0,
			"byteLength":403032,
			"byteOffset":2881896,
			"target":34962
		},
		{
			"buffer":0,
			"byteLength":368832,
			"byteOffset":3284928,
			"target":34963
		}
	],
	"samplers":[
		{
			"magFilter":9729,
			"minFilter":9987
		}
	],
	"buffers":[
		{
			"byteLength":3653760,
			"uri":"cannon.bin"
		}
	]
}
