{
	"asset":{
		"generator":"Khronos glTF Blender I/O v3.5.30",
		"version":"2.0"
	},
	"scene":0,
	"scenes":[
		{
			"name":"Scene",
			"nodes":[
				0
			]
		}
	],
	"nodes":[
		{
			"mesh":0,
			"name":"uploads_files_2499711_right_hand.002"
		}
	],
	"materials":[
		{
			"doubleSided":true,
			"name":"Default OBJ.001",
			"pbrMetallicRoughness":{
				"baseColorFactor":[
					0.800000011920929,
					0.800000011920929,
					0.800000011920929,
					1
				],
				"metallicFactor":0,
				"roughnessFactor":0.5
			}
		}
	],
	"meshes":[
		{
			"name":"uploads_files_2499711_right_hand.002",
			"primitives":[
				{
					"attributes":{
						"POSITION":0,
						"NORMAL":1
					},
					"indices":2,
					"material":0
				}
			]
		}
	],
	"accessors":[
		{
			"bufferView":0,
			"componentType":5126,
			"count":13601,
			"max":[
				2.4120240211486816,
				4.49749231338501,
				3.073166847229004
			],
			"min":[
				-4.282434463500977,
				-2.832632303237915,
				-3.518629312515259
			],
			"type":"VEC3"
		},
		{
			"bufferView":1,
			"componentType":5126,
			"count":13601,
			"type":"VEC3"
		},
		{
			"bufferView":2,
			"componentType":5123,
			"count":20502,
			"type":"SCALAR"
		}
	],
	"bufferViews":[
		{
			"buffer":0,
			"byteLength":163212,
			"byteOffset":0,
			"target":34962
		},
		{
			"buffer":0,
			"byteLength":163212,
			"byteOffset":163212,
			"target":34962
		},
		{
			"buffer":0,
			"byteLength":41004,
			"byteOffset":326424,
			"target":34963
		}
	],
	"buffers":[
		{
			"byteLength":367428,
			"uri":"hand.bin"
		}
	]
}
