{
	"asset":{
		"generator":"Khronos glTF Blender I/O v3.5.30",
		"version":"2.0"
	},
	"extensionsUsed":[
		"KHR_materials_specular",
		"KHR_materials_ior"
	],
	"scene":0,
	"scenes":[
		{
			"name":"Scene",
			"nodes":[
				0
			]
		}
	],
	"nodes":[
		{
			"mesh":0,
			"name":"train"
		}
	],
	"materials":[
		{
			"doubleSided":true,
			"extensions":{
				"KHR_materials_specular":{
					"specularColorFactor":[
						0.7843137828849162,
						0.7843137828849162,
						0.7843137828849162
					]
				},
				"KHR_materials_ior":{
					"ior":1.4500000476837158
				}
			},
			"name":"Metal_Galvanized_A_10cm",
			"pbrMetallicRoughness":{
				"baseColorTexture":{
					"index":0
				},
				"metallicFactor":0
			}
		}
	],
	"meshes":[
		{
			"name":"train",
			"primitives":[
				{
					"attributes":{
						"POSITION":0,
						"NORMAL":1
					},
					"indices":2,
					"material":0
				}
			]
		}
	],
	"textures":[
		{
			"sampler":0,
			"source":0
		}
	],
	"images":[
		{
			"mimeType":"image/jpeg",
			"name":"Metal_Galvanized_A_10cm",
			"uri":"Metal_Galvanized_A_10cm.jpg"
		}
	],
	"accessors":[
		{
			"bufferView":0,
			"componentType":5126,
			"count":140128,
			"max":[
				4.04846715927124,
				0.7157084345817566,
				119.7923355102539
			],
			"min":[
				-4.048476696014404,
				-0.6808072328567505,
				-113.0858154296875
			],
			"type":"VEC3"
		},
		{
			"bufferView":1,
			"componentType":5126,
			"count":140128,
			"type":"VEC3"
		},
		{
			"bufferView":2,
			"componentType":5125,
			"count":305016,
			"type":"SCALAR"
		}
	],
	"bufferViews":[
		{
			"buffer":0,
			"byteLength":1681536,
			"byteOffset":0,
			"target":34962
		},
		{
			"buffer":0,
			"byteLength":1681536,
			"byteOffset":1681536,
			"target":34962
		},
		{
			"buffer":0,
			"byteLength":1220064,
			"byteOffset":3363072,
			"target":34963
		}
	],
	"samplers":[
		{
			"magFilter":9729,
			"minFilter":9987
		}
	],
	"buffers":[
		{
			"byteLength":4583136,
			"uri":"rail.bin"
		}
	]
}
