{
	"asset":{
		"generator":"Khronos glTF Blender I/O v3.5.30",
		"version":"2.0"
	},
	"extensionsUsed":[
		"KHR_materials_specular",
		"KHR_materials_ior"
	],
	"scene":0,
	"scenes":[
		{
			"name":"Scene",
			"nodes":[
				9
			]
		}
	],
	"nodes":[
		{
			"mesh":0,
			"name":"Truck 1 Cargo",
			"translation":[
				1.3518190383911133,
				0.5054154396057129,
				0
			]
		},
		{
			"mesh":1,
			"name":"WheelT1-1",
			"translation":[
				-2.5466198921203613,
				-1.441190242767334,
				1.0329680442810059
			]
		},
		{
			"mesh":2,
			"name":"WheelT1-2",
			"translation":[
				-0.8677997589111328,
				-1.441190242767334,
				1.0329680442810059
			]
		},
		{
			"mesh":3,
			"name":"WheelT1-3",
			"translation":[
				1.6353068351745605,
				-1.441190242767334,
				0.8658175468444824
			]
		},
		{
			"mesh":4,
			"name":"WheelT1-4",
			"translation":[
				2.9208896160125732,
				-1.441190242767334,
				0.8658175468444824
			]
		},
		{
			"mesh":5,
			"name":"WheelT1-5",
			"translation":[
				-2.5466198921203613,
				-1.441190242767334,
				-1.0329704284667969
			]
		},
		{
			"mesh":6,
			"name":"WheelT1-6",
			"translation":[
				-0.8677997589111328,
				-1.441190242767334,
				-1.0329704284667969
			]
		},
		{
			"mesh":7,
			"name":"WheelT1-7",
			"translation":[
				1.6353063583374023,
				-1.441190242767334,
				-0.8658199310302734
			]
		},
		{
			"mesh":8,
			"name":"WheelT1-8",
			"translation":[
				2.9208896160125732,
				-1.441190242767334,
				-0.8658199310302734
			]
		},
		{
			"children":[
				0,
				1,
				2,
				3,
				4,
				5,
				6,
				7,
				8
			],
			"mesh":9,
			"name":"Truck 1"
		}
	],
	"animations":[
		{
			"channels":[
				{
					"sampler":0,
					"target":{
						"node":1,
						"path":"rotation"
					}
				}
			],
			"name":"WheelT1-1Action",
			"samplers":[
				{
					"input":60,
					"interpolation":"LINEAR",
					"output":61
				}
			]
		},
		{
			"channels":[
				{
					"sampler":0,
					"target":{
						"node":2,
						"path":"rotation"
					}
				}
			],
			"name":"WheelT1-2Action",
			"samplers":[
				{
					"input":60,
					"interpolation":"LINEAR",
					"output":62
				}
			]
		},
		{
			"channels":[
				{
					"sampler":0,
					"target":{
						"node":3,
						"path":"rotation"
					}
				}
			],
			"name":"WheelT1-3Action",
			"samplers":[
				{
					"input":60,
					"interpolation":"LINEAR",
					"output":63
				}
			]
		},
		{
			"channels":[
				{
					"sampler":0,
					"target":{
						"node":4,
						"path":"rotation"
					}
				}
			],
			"name":"WheelT1-4Action",
			"samplers":[
				{
					"input":60,
					"interpolation":"LINEAR",
					"output":64
				}
			]
		},
		{
			"channels":[
				{
					"sampler":0,
					"target":{
						"node":5,
						"path":"rotation"
					}
				}
			],
			"name":"WheelT1-5Action",
			"samplers":[
				{
					"input":60,
					"interpolation":"LINEAR",
					"output":65
				}
			]
		},
		{
			"channels":[
				{
					"sampler":0,
					"target":{
						"node":6,
						"path":"rotation"
					}
				}
			],
			"name":"WheelT1-6Action",
			"samplers":[
				{
					"input":60,
					"interpolation":"LINEAR",
					"output":66
				}
			]
		},
		{
			"channels":[
				{
					"sampler":0,
					"target":{
						"node":7,
						"path":"rotation"
					}
				}
			],
			"name":"WheelT1-7Action",
			"samplers":[
				{
					"input":60,
					"interpolation":"LINEAR",
					"output":67
				}
			]
		},
		{
			"channels":[
				{
					"sampler":0,
					"target":{
						"node":8,
						"path":"rotation"
					}
				}
			],
			"name":"WheelT1-8Action",
			"samplers":[
				{
					"input":60,
					"interpolation":"LINEAR",
					"output":68
				}
			]
		}
	],
	"materials":[
		{
			"doubleSided":true,
			"extensions":{
				"KHR_materials_specular":{
					"specularColorFactor":[
						2.371357614441398,
						2.371357614441398,
						2.371357614441398
					]
				},
				"KHR_materials_ior":{
					"ior":1.4500000476837158
				}
			},
			"name":"CarPaint.001",
			"pbrMetallicRoughness":{
				"baseColorFactor":[
					0.800000011920929,
					0.800000011920929,
					0.800000011920929,
					1
				],
				"roughnessFactor":0.5527864098548889
			}
		},
		{
			"doubleSided":true,
			"extensions":{
				"KHR_materials_specular":{
					"specularColorFactor":[
						2.371357614441398,
						2.371357614441398,
						2.371357614441398
					]
				},
				"KHR_materials_ior":{
					"ior":1.4500000476837158
				}
			},
			"name":"CarRubber.001",
			"pbrMetallicRoughness":{
				"baseColorFactor":[
					0.800000011920929,
					0.800000011920929,
					0.800000011920929,
					1
				],
				"roughnessFactor":0.5527864098548889
			}
		},
		{
			"doubleSided":true,
			"extensions":{
				"KHR_materials_specular":{
					"specularColorFactor":[
						2.371357614441398,
						2.371357614441398,
						2.371357614441398
					]
				},
				"KHR_materials_ior":{
					"ior":1.4500000476837158
				}
			},
			"name":"CarWindows.001",
			"pbrMetallicRoughness":{
				"baseColorFactor":[
					0.800000011920929,
					0.800000011920929,
					0.800000011920929,
					1
				],
				"roughnessFactor":0.5527864098548889
			}
		}
	],
	"meshes":[
		{
			"name":"Cube.001",
			"primitives":[
				{
					"attributes":{
						"POSITION":0,
						"NORMAL":1
					},
					"indices":2,
					"material":0
				}
			]
		},
		{
			"name":"Cube.023",
			"primitives":[
				{
					"attributes":{
						"POSITION":3,
						"TEXCOORD_0":4,
						"NORMAL":5
					},
					"indices":6,
					"material":0
				},
				{
					"attributes":{
						"POSITION":7,
						"TEXCOORD_0":8,
						"NORMAL":9
					},
					"indices":10,
					"material":1
				}
			]
		},
		{
			"name":"Cube.034",
			"primitives":[
				{
					"attributes":{
						"POSITION":11,
						"TEXCOORD_0":12,
						"NORMAL":13
					},
					"indices":6,
					"material":0
				},
				{
					"attributes":{
						"POSITION":14,
						"TEXCOORD_0":15,
						"NORMAL":16
					},
					"indices":10,
					"material":1
				}
			]
		},
		{
			"name":"Cube.025",
			"primitives":[
				{
					"attributes":{
						"POSITION":17,
						"TEXCOORD_0":18,
						"NORMAL":19
					},
					"indices":6,
					"material":0
				},
				{
					"attributes":{
						"POSITION":20,
						"TEXCOORD_0":21,
						"NORMAL":22
					},
					"indices":23,
					"material":1
				}
			]
		},
		{
			"name":"Cube.033",
			"primitives":[
				{
					"attributes":{
						"POSITION":24,
						"TEXCOORD_0":25,
						"NORMAL":26
					},
					"indices":6,
					"material":0
				},
				{
					"attributes":{
						"POSITION":27,
						"TEXCOORD_0":28,
						"NORMAL":29
					},
					"indices":23,
					"material":1
				}
			]
		},
		{
			"name":"Cube.032",
			"primitives":[
				{
					"attributes":{
						"POSITION":30,
						"TEXCOORD_0":31,
						"NORMAL":32
					},
					"indices":33,
					"material":0
				},
				{
					"attributes":{
						"POSITION":34,
						"TEXCOORD_0":35,
						"NORMAL":36
					},
					"indices":37,
					"material":1
				}
			]
		},
		{
			"name":"Cube.031",
			"primitives":[
				{
					"attributes":{
						"POSITION":38,
						"TEXCOORD_0":39,
						"NORMAL":40
					},
					"indices":33,
					"material":0
				},
				{
					"attributes":{
						"POSITION":41,
						"TEXCOORD_0":42,
						"NORMAL":43
					},
					"indices":37,
					"material":1
				}
			]
		},
		{
			"name":"Cube.030",
			"primitives":[
				{
					"attributes":{
						"POSITION":44,
						"TEXCOORD_0":45,
						"NORMAL":46
					},
					"indices":33,
					"material":0
				},
				{
					"attributes":{
						"POSITION":47,
						"TEXCOORD_0":48,
						"NORMAL":49
					},
					"indices":50,
					"material":1
				}
			]
		},
		{
			"name":"Cube.029",
			"primitives":[
				{
					"attributes":{
						"POSITION":51,
						"TEXCOORD_0":52,
						"NORMAL":53
					},
					"indices":33,
					"material":0
				},
				{
					"attributes":{
						"POSITION":54,
						"TEXCOORD_0":55,
						"NORMAL":56
					},
					"indices":50,
					"material":1
				}
			]
		},
		{
			"name":"Cube.009",
			"primitives":[
				{
					"attributes":{
						"POSITION":57,
						"NORMAL":58
					},
					"indices":59,
					"material":2
				}
			]
		}
	],
	"accessors":[
		{
			"bufferView":0,
			"componentType":5126,
			"count":4487,
			"max":[
				2.9375803470611572,
				1.2205679416656494,
				1.2166892290115356
			],
			"min":[
				-2.9224469661712646,
				-1.2286783456802368,
				-1.222651720046997
			],
			"type":"VEC3"
		},
		{
			"bufferView":1,
			"componentType":5126,
			"count":4487,
			"type":"VEC3"
		},
		{
			"bufferView":2,
			"componentType":5123,
			"count":23682,
			"type":"SCALAR"
		},
		{
			"bufferView":3,
			"componentType":5126,
			"count":55,
			"max":[
				0.29874539375305176,
				0.2861874997615814,
				0.1161690279841423
			],
			"min":[
				-0.2987450063228607,
				-0.30222541093826294,
				0.07216321676969528
			],
			"type":"VEC3"
		},
		{
			"bufferView":4,
			"componentType":5126,
			"count":55,
			"type":"VEC2"
		},
		{
			"bufferView":5,
			"componentType":5126,
			"count":55,
			"type":"VEC3"
		},
		{
			"bufferView":6,
			"componentType":5123,
			"count":102,
			"type":"SCALAR"
		},
		{
			"bufferView":7,
			"componentType":5126,
			"count":153,
			"max":[
				0.5606402158737183,
				0.5521228313446045,
				0.18071502447128296
			],
			"min":[
				-0.5606402158737183,
				-0.5521228313446045,
				-0.18071496486663818
			],
			"type":"VEC3"
		},
		{
			"bufferView":8,
			"componentType":5126,
			"count":153,
			"type":"VEC2"
		},
		{
			"bufferView":9,
			"componentType":5126,
			"count":153,
			"type":"VEC3"
		},
		{
			"bufferView":10,
			"componentType":5123,
			"count":237,
			"type":"SCALAR"
		},
		{
			"bufferView":11,
			"componentType":5126,
			"count":55,
			"max":[
				0.29874539375305176,
				0.2861874997615814,
				0.1161690279841423
			],
			"min":[
				-0.2987450063228607,
				-0.30222541093826294,
				0.07216321676969528
			],
			"type":"VEC3"
		},
		{
			"bufferView":12,
			"componentType":5126,
			"count":55,
			"type":"VEC2"
		},
		{
			"bufferView":13,
			"componentType":5126,
			"count":55,
			"type":"VEC3"
		},
		{
			"bufferView":14,
			"componentType":5126,
			"count":153,
			"max":[
				0.5606402158737183,
				0.5521228313446045,
				0.18071502447128296
			],
			"min":[
				-0.5606402158737183,
				-0.5521228313446045,
				-0.18071496486663818
			],
			"type":"VEC3"
		},
		{
			"bufferView":15,
			"componentType":5126,
			"count":153,
			"type":"VEC2"
		},
		{
			"bufferView":16,
			"componentType":5126,
			"count":153,
			"type":"VEC3"
		},
		{
			"bufferView":17,
			"componentType":5126,
			"count":55,
			"max":[
				0.29874542355537415,
				0.2861874997615814,
				0.28331950306892395
			],
			"min":[
				-0.2987450659275055,
				-0.30222541093826294,
				0.23931369185447693
			],
			"type":"VEC3"
		},
		{
			"bufferView":18,
			"componentType":5126,
			"count":55,
			"type":"VEC2"
		},
		{
			"bufferView":19,
			"componentType":5126,
			"count":55,
			"type":"VEC3"
		},
		{
			"bufferView":20,
			"componentType":5126,
			"count":261,
			"max":[
				0.5606403350830078,
				0.5521228313446045,
				0.3478655219078064
			],
			"min":[
				-0.5606403350830078,
				-0.5521228313446045,
				-0.347865492105484
			],
			"type":"VEC3"
		},
		{
			"bufferView":21,
			"componentType":5126,
			"count":261,
			"type":"VEC2"
		},
		{
			"bufferView":22,
			"componentType":5126,
			"count":261,
			"type":"VEC3"
		},
		{
			"bufferView":23,
			"componentType":5123,
			"count":393,
			"type":"SCALAR"
		},
		{
			"bufferView":24,
			"componentType":5126,
			"count":55,
			"max":[
				0.29874542355537415,
				0.2861874997615814,
				0.28331950306892395
			],
			"min":[
				-0.2987450659275055,
				-0.30222541093826294,
				0.23931369185447693
			],
			"type":"VEC3"
		},
		{
			"bufferView":25,
			"componentType":5126,
			"count":55,
			"type":"VEC2"
		},
		{
			"bufferView":26,
			"componentType":5126,
			"count":55,
			"type":"VEC3"
		},
		{
			"bufferView":27,
			"componentType":5126,
			"count":261,
			"max":[
				0.5606403350830078,
				0.5521228313446045,
				0.3478655219078064
			],
			"min":[
				-0.5606403350830078,
				-0.5521228313446045,
				-0.347865492105484
			],
			"type":"VEC3"
		},
		{
			"bufferView":28,
			"componentType":5126,
			"count":261,
			"type":"VEC2"
		},
		{
			"bufferView":29,
			"componentType":5126,
			"count":261,
			"type":"VEC3"
		},
		{
			"bufferView":30,
			"componentType":5126,
			"count":55,
			"max":[
				0.2987450063228607,
				0.2861874997615814,
				-0.07216326147317886
			],
			"min":[
				-0.29874539375305176,
				-0.30222541093826294,
				-0.11616900563240051
			],
			"type":"VEC3"
		},
		{
			"bufferView":31,
			"componentType":5126,
			"count":55,
			"type":"VEC2"
		},
		{
			"bufferView":32,
			"componentType":5126,
			"count":55,
			"type":"VEC3"
		},
		{
			"bufferView":33,
			"componentType":5123,
			"count":102,
			"type":"SCALAR"
		},
		{
			"bufferView":34,
			"componentType":5126,
			"count":153,
			"max":[
				0.5606402158737183,
				0.5521228313446045,
				0.1807149201631546
			],
			"min":[
				-0.5606402158737183,
				-0.5521228313446045,
				-0.18071496486663818
			],
			"type":"VEC3"
		},
		{
			"bufferView":35,
			"componentType":5126,
			"count":153,
			"type":"VEC2"
		},
		{
			"bufferView":36,
			"componentType":5126,
			"count":153,
			"type":"VEC3"
		},
		{
			"bufferView":37,
			"componentType":5123,
			"count":237,
			"type":"SCALAR"
		},
		{
			"bufferView":38,
			"componentType":5126,
			"count":55,
			"max":[
				0.2987450063228607,
				0.2861874997615814,
				-0.07216326147317886
			],
			"min":[
				-0.29874539375305176,
				-0.30222541093826294,
				-0.11616900563240051
			],
			"type":"VEC3"
		},
		{
			"bufferView":39,
			"componentType":5126,
			"count":55,
			"type":"VEC2"
		},
		{
			"bufferView":40,
			"componentType":5126,
			"count":55,
			"type":"VEC3"
		},
		{
			"bufferView":41,
			"componentType":5126,
			"count":153,
			"max":[
				0.5606402158737183,
				0.5521228313446045,
				0.1807149201631546
			],
			"min":[
				-0.5606402158737183,
				-0.5521228313446045,
				-0.18071496486663818
			],
			"type":"VEC3"
		},
		{
			"bufferView":42,
			"componentType":5126,
			"count":153,
			"type":"VEC2"
		},
		{
			"bufferView":43,
			"componentType":5126,
			"count":153,
			"type":"VEC3"
		},
		{
			"bufferView":44,
			"componentType":5126,
			"count":55,
			"max":[
				0.2987450361251831,
				0.2861874997615814,
				-0.2393137365579605
			],
			"min":[
				-0.29874545335769653,
				-0.30222541093826294,
				-0.28331947326660156
			],
			"type":"VEC3"
		},
		{
			"bufferView":45,
			"componentType":5126,
			"count":55,
			"type":"VEC2"
		},
		{
			"bufferView":46,
			"componentType":5126,
			"count":55,
			"type":"VEC3"
		},
		{
			"bufferView":47,
			"componentType":5126,
			"count":261,
			"max":[
				0.560640275478363,
				0.5521228313446045,
				0.3478654623031616
			],
			"min":[
				-0.560640275478363,
				-0.5521228313446045,
				-0.3478654623031616
			],
			"type":"VEC3"
		},
		{
			"bufferView":48,
			"componentType":5126,
			"count":261,
			"type":"VEC2"
		},
		{
			"bufferView":49,
			"componentType":5126,
			"count":261,
			"type":"VEC3"
		},
		{
			"bufferView":50,
			"componentType":5123,
			"count":393,
			"type":"SCALAR"
		},
		{
			"bufferView":51,
			"componentType":5126,
			"count":55,
			"max":[
				0.2987450361251831,
				0.2861874997615814,
				-0.2393137365579605
			],
			"min":[
				-0.29874545335769653,
				-0.30222541093826294,
				-0.28331947326660156
			],
			"type":"VEC3"
		},
		{
			"bufferView":52,
			"componentType":5126,
			"count":55,
			"type":"VEC2"
		},
		{
			"bufferView":53,
			"componentType":5126,
			"count":55,
			"type":"VEC3"
		},
		{
			"bufferView":54,
			"componentType":5126,
			"count":261,
			"max":[
				0.560640275478363,
				0.5521228313446045,
				0.3478654623031616
			],
			"min":[
				-0.560640275478363,
				-0.5521228313446045,
				-0.3478654623031616
			],
			"type":"VEC3"
		},
		{
			"bufferView":55,
			"componentType":5126,
			"count":261,
			"type":"VEC2"
		},
		{
			"bufferView":56,
			"componentType":5126,
			"count":261,
			"type":"VEC3"
		},
		{
			"bufferView":57,
			"componentType":5126,
			"count":6296,
			"max":[
				4.037842750549316,
				1.7729817628860474,
				1.4727309942245483
			],
			"min":[
				-4.052900791168213,
				-1.790970802307129,
				-1.4773895740509033
			],
			"type":"VEC3"
		},
		{
			"bufferView":58,
			"componentType":5126,
			"count":6296,
			"type":"VEC3"
		},
		{
			"bufferView":59,
			"componentType":5123,
			"count":23160,
			"type":"SCALAR"
		},
		{
			"bufferView":60,
			"componentType":5126,
			"count":61,
			"max":[
				2.5
			],
			"min":[
				0
			],
			"type":"SCALAR"
		},
		{
			"bufferView":61,
			"componentType":5126,
			"count":61,
			"type":"VEC4"
		},
		{
			"bufferView":62,
			"componentType":5126,
			"count":61,
			"type":"VEC4"
		},
		{
			"bufferView":63,
			"componentType":5126,
			"count":61,
			"type":"VEC4"
		},
		{
			"bufferView":64,
			"componentType":5126,
			"count":61,
			"type":"VEC4"
		},
		{
			"bufferView":65,
			"componentType":5126,
			"count":61,
			"type":"VEC4"
		},
		{
			"bufferView":66,
			"componentType":5126,
			"count":61,
			"type":"VEC4"
		},
		{
			"bufferView":67,
			"componentType":5126,
			"count":61,
			"type":"VEC4"
		},
		{
			"bufferView":68,
			"componentType":5126,
			"count":61,
			"type":"VEC4"
		}
	],
	"bufferViews":[
		{
			"buffer":0,
			"byteLength":53844,
			"byteOffset":0,
			"target":34962
		},
		{
			"buffer":0,
			"byteLength":53844,
			"byteOffset":53844,
			"target":34962
		},
		{
			"buffer":0,
			"byteLength":47364,
			"byteOffset":107688,
			"target":34963
		},
		{
			"buffer":0,
			"byteLength":660,
			"byteOffset":155052,
			"target":34962
		},
		{
			"buffer":0,
			"byteLength":440,
			"byteOffset":155712,
			"target":34962
		},
		{
			"buffer":0,
			"byteLength":660,
			"byteOffset":156152,
			"target":34962
		},
		{
			"buffer":0,
			"byteLength":204,
			"byteOffset":156812,
			"target":34963
		},
		{
			"buffer":0,
			"byteLength":1836,
			"byteOffset":157016,
			"target":34962
		},
		{
			"buffer":0,
			"byteLength":1224,
			"byteOffset":158852,
			"target":34962
		},
		{
			"buffer":0,
			"byteLength":1836,
			"byteOffset":160076,
			"target":34962
		},
		{
			"buffer":0,
			"byteLength":474,
			"byteOffset":161912,
			"target":34963
		},
		{
			"buffer":0,
			"byteLength":660,
			"byteOffset":162388,
			"target":34962
		},
		{
			"buffer":0,
			"byteLength":440,
			"byteOffset":163048,
			"target":34962
		},
		{
			"buffer":0,
			"byteLength":660,
			"byteOffset":163488,
			"target":34962
		},
		{
			"buffer":0,
			"byteLength":1836,
			"byteOffset":164148,
			"target":34962
		},
		{
			"buffer":0,
			"byteLength":1224,
			"byteOffset":165984,
			"target":34962
		},
		{
			"buffer":0,
			"byteLength":1836,
			"byteOffset":167208,
			"target":34962
		},
		{
			"buffer":0,
			"byteLength":660,
			"byteOffset":169044,
			"target":34962
		},
		{
			"buffer":0,
			"byteLength":440,
			"byteOffset":169704,
			"target":34962
		},
		{
			"buffer":0,
			"byteLength":660,
			"byteOffset":170144,
			"target":34962
		},
		{
			"buffer":0,
			"byteLength":3132,
			"byteOffset":170804,
			"target":34962
		},
		{
			"buffer":0,
			"byteLength":2088,
			"byteOffset":173936,
			"target":34962
		},
		{
			"buffer":0,
			"byteLength":3132,
			"byteOffset":176024,
			"target":34962
		},
		{
			"buffer":0,
			"byteLength":786,
			"byteOffset":179156,
			"target":34963
		},
		{
			"buffer":0,
			"byteLength":660,
			"byteOffset":179944,
			"target":34962
		},
		{
			"buffer":0,
			"byteLength":440,
			"byteOffset":180604,
			"target":34962
		},
		{
			"buffer":0,
			"byteLength":660,
			"byteOffset":181044,
			"target":34962
		},
		{
			"buffer":0,
			"byteLength":3132,
			"byteOffset":181704,
			"target":34962
		},
		{
			"buffer":0,
			"byteLength":2088,
			"byteOffset":184836,
			"target":34962
		},
		{
			"buffer":0,
			"byteLength":3132,
			"byteOffset":186924,
			"target":34962
		},
		{
			"buffer":0,
			"byteLength":660,
			"byteOffset":190056,
			"target":34962
		},
		{
			"buffer":0,
			"byteLength":440,
			"byteOffset":190716,
			"target":34962
		},
		{
			"buffer":0,
			"byteLength":660,
			"byteOffset":191156,
			"target":34962
		},
		{
			"buffer":0,
			"byteLength":204,
			"byteOffset":191816,
			"target":34963
		},
		{
			"buffer":0,
			"byteLength":1836,
			"byteOffset":192020,
			"target":34962
		},
		{
			"buffer":0,
			"byteLength":1224,
			"byteOffset":193856,
			"target":34962
		},
		{
			"buffer":0,
			"byteLength":1836,
			"byteOffset":195080,
			"target":34962
		},
		{
			"buffer":0,
			"byteLength":474,
			"byteOffset":196916,
			"target":34963
		},
		{
			"buffer":0,
			"byteLength":660,
			"byteOffset":197392,
			"target":34962
		},
		{
			"buffer":0,
			"byteLength":440,
			"byteOffset":198052,
			"target":34962
		},
		{
			"buffer":0,
			"byteLength":660,
			"byteOffset":198492,
			"target":34962
		},
		{
			"buffer":0,
			"byteLength":1836,
			"byteOffset":199152,
			"target":34962
		},
		{
			"buffer":0,
			"byteLength":1224,
			"byteOffset":200988,
			"target":34962
		},
		{
			"buffer":0,
			"byteLength":1836,
			"byteOffset":202212,
			"target":34962
		},
		{
			"buffer":0,
			"byteLength":660,
			"byteOffset":204048,
			"target":34962
		},
		{
			"buffer":0,
			"byteLength":440,
			"byteOffset":204708,
			"target":34962
		},
		{
			"buffer":0,
			"byteLength":660,
			"byteOffset":205148,
			"target":34962
		},
		{
			"buffer":0,
			"byteLength":3132,
			"byteOffset":205808,
			"target":34962
		},
		{
			"buffer":0,
			"byteLength":2088,
			"byteOffset":208940,
			"target":34962
		},
		{
			"buffer":0,
			"byteLength":3132,
			"byteOffset":211028,
			"target":34962
		},
		{
			"buffer":0,
			"byteLength":786,
			"byteOffset":214160,
			"target":34963
		},
		{
			"buffer":0,
			"byteLength":660,
			"byteOffset":214948,
			"target":34962
		},
		{
			"buffer":0,
			"byteLength":440,
			"byteOffset":215608,
			"target":34962
		},
		{
			"buffer":0,
			"byteLength":660,
			"byteOffset":216048,
			"target":34962
		},
		{
			"buffer":0,
			"byteLength":3132,
			"byteOffset":216708,
			"target":34962
		},
		{
			"buffer":0,
			"byteLength":2088,
			"byteOffset":219840,
			"target":34962
		},
		{
			"buffer":0,
			"byteLength":3132,
			"byteOffset":221928,
			"target":34962
		},
		{
			"buffer":0,
			"byteLength":75552,
			"byteOffset":225060,
			"target":34962
		},
		{
			"buffer":0,
			"byteLength":75552,
			"byteOffset":300612,
			"target":34962
		},
		{
			"buffer":0,
			"byteLength":46320,
			"byteOffset":376164,
			"target":34963
		},
		{
			"buffer":0,
			"byteLength":244,
			"byteOffset":422484
		},
		{
			"buffer":0,
			"byteLength":976,
			"byteOffset":422728
		},
		{
			"buffer":0,
			"byteLength":976,
			"byteOffset":423704
		},
		{
			"buffer":0,
			"byteLength":976,
			"byteOffset":424680
		},
		{
			"buffer":0,
			"byteLength":976,
			"byteOffset":425656
		},
		{
			"buffer":0,
			"byteLength":976,
			"byteOffset":426632
		},
		{
			"buffer":0,
			"byteLength":976,
			"byteOffset":427608
		},
		{
			"buffer":0,
			"byteLength":976,
			"byteOffset":428584
		},
		{
			"buffer":0,
			"byteLength":976,
			"byteOffset":429560
		}
	],
	"buffers":[
		{
			"byteLength":430536,
			"uri":"truck.bin"
		}
	]
}
