{
	"asset":{
		"generator":"Khronos glTF Blender I/O v3.5.30",
		"version":"2.0"
	},
	"extensionsUsed":[
		"KHR_materials_specular",
		"KHR_materials_ior"
	],
	"scene":0,
	"scenes":[
		{
			"name":"Scene",
			"nodes":[
				0
			]
		}
	],
	"nodes":[
		{
			"mesh":0,
			"name":"Truck 1"
		}
	],
	"materials":[
		{
			"doubleSided":true,
			"extensions":{
				"KHR_materials_specular":{
					"specularColorFactor":[
						2.371357614441398,
						2.371357614441398,
						2.371357614441398
					]
				},
				"KHR_materials_ior":{
					"ior":1.4500000476837158
				}
			},
			"name":"CarWindows",
			"pbrMetallicRoughness":{
				"baseColorFactor":[
					0.800000011920929,
					0.800000011920929,
					0.800000011920929,
					1
				],
				"roughnessFactor":0.5527864098548889
			}
		},
		{
			"doubleSided":true,
			"extensions":{
				"KHR_materials_specular":{
					"specularColorFactor":[
						2.371357614441398,
						2.371357614441398,
						2.371357614441398
					]
				},
				"KHR_materials_ior":{
					"ior":1.4500000476837158
				}
			},
			"name":"CarPaint",
			"pbrMetallicRoughness":{
				"baseColorFactor":[
					0.800000011920929,
					0.800000011920929,
					0.800000011920929,
					1
				],
				"roughnessFactor":0.5527864098548889
			}
		},
		{
			"doubleSided":true,
			"extensions":{
				"KHR_materials_specular":{
					"specularColorFactor":[
						2.371357614441398,
						2.371357614441398,
						2.371357614441398
					]
				},
				"KHR_materials_ior":{
					"ior":1.4500000476837158
				}
			},
			"name":"CarLamps",
			"pbrMetallicRoughness":{
				"baseColorFactor":[
					0.800000011920929,
					0.800000011920929,
					0.800000011920929,
					1
				],
				"roughnessFactor":0.5527864098548889
			}
		},
		{
			"doubleSided":true,
			"extensions":{
				"KHR_materials_specular":{
					"specularColorFactor":[
						2.371357614441398,
						2.371357614441398,
						2.371357614441398
					]
				},
				"KHR_materials_ior":{
					"ior":1.4500000476837158
				}
			},
			"name":"CarRubber",
			"pbrMetallicRoughness":{
				"baseColorFactor":[
					0.800000011920929,
					0.800000011920929,
					0.800000011920929,
					1
				],
				"roughnessFactor":0.5527864098548889
			}
		}
	],
	"meshes":[
		{
			"name":"Cube.009",
			"primitives":[
				{
					"attributes":{
						"POSITION":0,
						"TEXCOORD_0":1,
						"NORMAL":2
					},
					"indices":3,
					"material":0
				},
				{
					"attributes":{
						"POSITION":4,
						"TEXCOORD_0":5,
						"NORMAL":6
					},
					"indices":7,
					"material":1
				},
				{
					"attributes":{
						"POSITION":8,
						"TEXCOORD_0":9,
						"NORMAL":10
					},
					"indices":11,
					"material":2
				},
				{
					"attributes":{
						"POSITION":12,
						"TEXCOORD_0":13,
						"NORMAL":14
					},
					"indices":15,
					"material":3
				}
			]
		}
	],
	"accessors":[
		{
			"bufferView":0,
			"componentType":5126,
			"count":36,
			"max":[
				-12.288135528564453,
				3.957134485244751,
				5.59391975402832
			],
			"min":[
				-19.30499267578125,
				-7.753615379333496,
				-5.59391975402832
			],
			"type":"VEC3"
		},
		{
			"bufferView":1,
			"componentType":5126,
			"count":36,
			"type":"VEC2"
		},
		{
			"bufferView":2,
			"componentType":5126,
			"count":36,
			"type":"VEC3"
		},
		{
			"bufferView":3,
			"componentType":5123,
			"count":48,
			"type":"SCALAR"
		},
		{
			"bufferView":4,
			"componentType":5126,
			"count":2518,
			"max":[
				21.330337524414062,
				8.864311218261719,
				7.340247631072998
			],
			"min":[
				-20.098325729370117,
				-8.864311218261719,
				-7.340247631072998
			],
			"type":"VEC3"
		},
		{
			"bufferView":5,
			"componentType":5126,
			"count":2518,
			"type":"VEC2"
		},
		{
			"bufferView":6,
			"componentType":5126,
			"count":2518,
			"type":"VEC3"
		},
		{
			"bufferView":7,
			"componentType":5123,
			"count":4104,
			"type":"SCALAR"
		},
		{
			"bufferView":8,
			"componentType":5126,
			"count":8,
			"max":[
				-18.63483428955078,
				-5.639805316925049,
				5.095916271209717
			],
			"min":[
				-19.083040237426758,
				-6.592093467712402,
				-5.095916271209717
			],
			"type":"VEC3"
		},
		{
			"bufferView":9,
			"componentType":5126,
			"count":8,
			"type":"VEC2"
		},
		{
			"bufferView":10,
			"componentType":5126,
			"count":8,
			"type":"VEC3"
		},
		{
			"bufferView":11,
			"componentType":5123,
			"count":12,
			"type":"SCALAR"
		},
		{
			"bufferView":12,
			"componentType":5126,
			"count":1656,
			"max":[
				17.407649993896484,
				-4.445337295532227,
				6.068415641784668
			],
			"min":[
				-15.536300659179688,
				-9.96656608581543,
				-6.068427085876465
			],
			"type":"VEC3"
		},
		{
			"bufferView":13,
			"componentType":5126,
			"count":1656,
			"type":"VEC2"
		},
		{
			"bufferView":14,
			"componentType":5126,
			"count":1656,
			"type":"VEC3"
		},
		{
			"bufferView":15,
			"componentType":5123,
			"count":2520,
			"type":"SCALAR"
		}
	],
	"bufferViews":[
		{
			"buffer":0,
			"byteLength":432,
			"byteOffset":0,
			"target":34962
		},
		{
			"buffer":0,
			"byteLength":288,
			"byteOffset":432,
			"target":34962
		},
		{
			"buffer":0,
			"byteLength":432,
			"byteOffset":720,
			"target":34962
		},
		{
			"buffer":0,
			"byteLength":96,
			"byteOffset":1152,
			"target":34963
		},
		{
			"buffer":0,
			"byteLength":30216,
			"byteOffset":1248,
			"target":34962
		},
		{
			"buffer":0,
			"byteLength":20144,
			"byteOffset":31464,
			"target":34962
		},
		{
			"buffer":0,
			"byteLength":30216,
			"byteOffset":51608,
			"target":34962
		},
		{
			"buffer":0,
			"byteLength":8208,
			"byteOffset":81824,
			"target":34963
		},
		{
			"buffer":0,
			"byteLength":96,
			"byteOffset":90032,
			"target":34962
		},
		{
			"buffer":0,
			"byteLength":64,
			"byteOffset":90128,
			"target":34962
		},
		{
			"buffer":0,
			"byteLength":96,
			"byteOffset":90192,
			"target":34962
		},
		{
			"buffer":0,
			"byteLength":24,
			"byteOffset":90288,
			"target":34963
		},
		{
			"buffer":0,
			"byteLength":19872,
			"byteOffset":90312,
			"target":34962
		},
		{
			"buffer":0,
			"byteLength":13248,
			"byteOffset":110184,
			"target":34962
		},
		{
			"buffer":0,
			"byteLength":19872,
			"byteOffset":123432,
			"target":34962
		},
		{
			"buffer":0,
			"byteLength":5040,
			"byteOffset":143304,
			"target":34963
		}
	],
	"buffers":[
		{
			"byteLength":148344,
			"uri":"truck.bin"
		}
	]
}
