{
	"asset":{
		"generator":"Khronos glTF Blender I/O v3.5.30",
		"version":"2.0"
	},
	"extensionsUsed":[
		"KHR_materials_specular",
		"KHR_materials_ior"
	],
	"scene":0,
	"scenes":[
		{
			"name":"Scene",
			"nodes":[
				0
			]
		}
	],
	"nodes":[
		{
			"mesh":0,
			"name":"Truck 1 Cargo"
		}
	],
	"materials":[
		{
			"doubleSided":true,
			"extensions":{
				"KHR_materials_specular":{
					"specularColorFactor":[
						2.371357614441398,
						2.371357614441398,
						2.371357614441398
					]
				},
				"KHR_materials_ior":{
					"ior":1.4500000476837158
				}
			},
			"name":"CarPaint",
			"pbrMetallicRoughness":{
				"baseColorFactor":[
					0.800000011920929,
					0.800000011920929,
					0.800000011920929,
					1
				],
				"roughnessFactor":0.5527864098548889
			}
		},
		{
			"doubleSided":true,
			"extensions":{
				"KHR_materials_specular":{
					"specularColorFactor":[
						2.371357614441398,
						2.371357614441398,
						2.371357614441398
					]
				},
				"KHR_materials_ior":{
					"ior":1.4500000476837158
				}
			},
			"name":"CarRubber",
			"pbrMetallicRoughness":{
				"baseColorFactor":[
					0.800000011920929,
					0.800000011920929,
					0.800000011920929,
					1
				],
				"roughnessFactor":0.5527864098548889
			}
		},
		{
			"doubleSided":true,
			"extensions":{
				"KHR_materials_specular":{
					"specularColorFactor":[
						2.371357614441398,
						2.371357614441398,
						2.371357614441398
					]
				},
				"KHR_materials_ior":{
					"ior":1.4500000476837158
				}
			},
			"name":"CarWindows",
			"pbrMetallicRoughness":{
				"baseColorFactor":[
					0.800000011920929,
					0.800000011920929,
					0.800000011920929,
					1
				],
				"roughnessFactor":0.5527864098548889
			}
		},
		{
			"doubleSided":true,
			"extensions":{
				"KHR_materials_specular":{
					"specularColorFactor":[
						2.371357614441398,
						2.371357614441398,
						2.371357614441398
					]
				},
				"KHR_materials_ior":{
					"ior":1.4500000476837158
				}
			},
			"name":"CarLamps",
			"pbrMetallicRoughness":{
				"baseColorFactor":[
					0.800000011920929,
					0.800000011920929,
					0.800000011920929,
					1
				],
				"roughnessFactor":0.5527864098548889
			}
		}
	],
	"meshes":[
		{
			"name":"Cube.027",
			"primitives":[
				{
					"attributes":{
						"POSITION":0,
						"TEXCOORD_0":1,
						"NORMAL":2
					},
					"indices":3,
					"material":0
				},
				{
					"attributes":{
						"POSITION":4,
						"TEXCOORD_0":5,
						"NORMAL":6
					},
					"indices":7,
					"material":1
				},
				{
					"attributes":{
						"POSITION":8,
						"TEXCOORD_0":9,
						"NORMAL":10
					},
					"indices":11,
					"material":2
				},
				{
					"attributes":{
						"POSITION":12,
						"TEXCOORD_0":13,
						"NORMAL":14
					},
					"indices":15,
					"material":3
				}
			]
		}
	],
	"accessors":[
		{
			"bufferView":0,
			"componentType":5126,
			"count":924,
			"max":[
				14.571242332458496,
				6.3372344970703125,
				7.340254306793213
			],
			"min":[
				-26.857421875,
				-11.391389846801758,
				-7.340240955352783
			],
			"type":"VEC3"
		},
		{
			"bufferView":1,
			"componentType":5126,
			"count":924,
			"type":"VEC2"
		},
		{
			"bufferView":2,
			"componentType":5126,
			"count":924,
			"type":"VEC3"
		},
		{
			"bufferView":3,
			"componentType":5123,
			"count":4104,
			"type":"SCALAR"
		},
		{
			"bufferView":4,
			"componentType":5126,
			"count":472,
			"max":[
				10.648554801940918,
				-6.972414016723633,
				6.068422794342041
			],
			"min":[
				-22.29539680480957,
				-12.493642807006836,
				-6.06842041015625
			],
			"type":"VEC3"
		},
		{
			"bufferView":5,
			"componentType":5126,
			"count":472,
			"type":"VEC2"
		},
		{
			"bufferView":6,
			"componentType":5126,
			"count":472,
			"type":"VEC3"
		},
		{
			"bufferView":7,
			"componentType":5123,
			"count":2520,
			"type":"SCALAR"
		},
		{
			"bufferView":8,
			"componentType":5126,
			"count":22,
			"max":[
				-19.047229766845703,
				1.4300572872161865,
				5.593926429748535
			],
			"min":[
				-26.064088821411133,
				-10.280693054199219,
				-5.5939130783081055
			],
			"type":"VEC3"
		},
		{
			"bufferView":9,
			"componentType":5126,
			"count":22,
			"type":"VEC2"
		},
		{
			"bufferView":10,
			"componentType":5126,
			"count":22,
			"type":"VEC3"
		},
		{
			"bufferView":11,
			"componentType":5123,
			"count":48,
			"type":"SCALAR"
		},
		{
			"bufferView":12,
			"componentType":5126,
			"count":8,
			"max":[
				-25.39392852783203,
				-8.166882514953613,
				5.095922946929932
			],
			"min":[
				-25.842134475708008,
				-9.119171142578125,
				-5.09591007232666
			],
			"type":"VEC3"
		},
		{
			"bufferView":13,
			"componentType":5126,
			"count":8,
			"type":"VEC2"
		},
		{
			"bufferView":14,
			"componentType":5126,
			"count":8,
			"type":"VEC3"
		},
		{
			"bufferView":15,
			"componentType":5123,
			"count":12,
			"type":"SCALAR"
		}
	],
	"bufferViews":[
		{
			"buffer":0,
			"byteLength":11088,
			"byteOffset":0,
			"target":34962
		},
		{
			"buffer":0,
			"byteLength":7392,
			"byteOffset":11088,
			"target":34962
		},
		{
			"buffer":0,
			"byteLength":11088,
			"byteOffset":18480,
			"target":34962
		},
		{
			"buffer":0,
			"byteLength":8208,
			"byteOffset":29568,
			"target":34963
		},
		{
			"buffer":0,
			"byteLength":5664,
			"byteOffset":37776,
			"target":34962
		},
		{
			"buffer":0,
			"byteLength":3776,
			"byteOffset":43440,
			"target":34962
		},
		{
			"buffer":0,
			"byteLength":5664,
			"byteOffset":47216,
			"target":34962
		},
		{
			"buffer":0,
			"byteLength":5040,
			"byteOffset":52880,
			"target":34963
		},
		{
			"buffer":0,
			"byteLength":264,
			"byteOffset":57920,
			"target":34962
		},
		{
			"buffer":0,
			"byteLength":176,
			"byteOffset":58184,
			"target":34962
		},
		{
			"buffer":0,
			"byteLength":264,
			"byteOffset":58360,
			"target":34962
		},
		{
			"buffer":0,
			"byteLength":96,
			"byteOffset":58624,
			"target":34963
		},
		{
			"buffer":0,
			"byteLength":96,
			"byteOffset":58720,
			"target":34962
		},
		{
			"buffer":0,
			"byteLength":64,
			"byteOffset":58816,
			"target":34962
		},
		{
			"buffer":0,
			"byteLength":96,
			"byteOffset":58880,
			"target":34962
		},
		{
			"buffer":0,
			"byteLength":24,
			"byteOffset":58976,
			"target":34963
		}
	],
	"buffers":[
		{
			"byteLength":59000,
			"uri":"truck.bin"
		}
	]
}
