{
	"asset":{
		"generator":"Khronos glTF Blender I/O v3.5.30",
		"version":"2.0"
	},
	"scene":0,
	"scenes":[
		{
			"name":"Scene",
			"nodes":[
				0
			]
		}
	],
	"nodes":[
		{
			"mesh":0,
			"name":"\u5e73\u9762"
		}
	],
	"meshes":[
		{
			"name":"\u5e73\u9762.002",
			"primitives":[
				{
					"attributes":{
						"POSITION":0,
						"TEXCOORD_0":1,
						"NORMAL":2
					},
					"indices":3
				}
			]
		}
	],
	"accessors":[
		{
			"bufferView":0,
			"componentType":5126,
			"count":32384,
			"max":[
				101.85916137695312,
				50.00010681152344,
				101.859130859375
			],
			"min":[
				-101.85916137695312,
				-49.99989318847656,
				-101.85919189453125
			],
			"type":"VEC3"
		},
		{
			"bufferView":1,
			"componentType":5126,
			"count":32384,
			"type":"VEC2"
		},
		{
			"bufferView":2,
			"componentType":5126,
			"count":32384,
			"type":"VEC3"
		},
		{
			"bufferView":3,
			"componentType":5123,
			"count":46080,
			"type":"SCALAR"
		}
	],
	"bufferViews":[
		{
			"buffer":0,
			"byteLength":388608,
			"byteOffset":0,
			"target":34962
		},
		{
			"buffer":0,
			"byteLength":259072,
			"byteOffset":388608,
			"target":34962
		},
		{
			"buffer":0,
			"byteLength":388608,
			"byteOffset":647680,
			"target":34962
		},
		{
			"buffer":0,
			"byteLength":92160,
			"byteOffset":1036288,
			"target":34963
		}
	],
	"buffers":[
		{
			"byteLength":1128448,
			"uri":"ground_2.bin"
		}
	]
}
