{
	"asset":{
		"generator":"Khronos glTF Blender I/O v3.5.30",
		"version":"2.0"
	},
	"extensionsUsed":[
		"KHR_materials_specular",
		"KHR_materials_ior"
	],
	"scene":0,
	"scenes":[
		{
			"name":"Scene",
			"nodes":[
				0
			]
		}
	],
	"nodes":[
		{
			"mesh":0,
			"name":"SUELO EXT"
		}
	],
	"materials":[
		{
			"alphaMode":"BLEND",
			"doubleSided":true,
			"extensions":{
				"KHR_materials_specular":{
					"specularColorFactor":[
						2.371357614441398,
						2.371357614441398,
						2.371357614441398
					]
				},
				"KHR_materials_ior":{
					"ior":1.4500000476837158
				}
			},
			"name":"Material #31",
			"pbrMetallicRoughness":{
				"baseColorTexture":{
					"index":0
				},
				"metallicFactor":0,
				"roughnessFactor":0.5527864098548889
			}
		},
		{
			"doubleSided":true,
			"extensions":{
				"KHR_materials_specular":{
					"specularColorFactor":[
						2.371357614441398,
						2.371357614441398,
						2.371357614441398
					]
				},
				"KHR_materials_ior":{
					"ior":1.4500000476837158
				}
			},
			"name":"Material #28",
			"pbrMetallicRoughness":{
				"baseColorTexture":{
					"index":1
				},
				"metallicFactor":0,
				"roughnessFactor":0.5527864098548889
			}
		},
		{
			"alphaMode":"BLEND",
			"doubleSided":true,
			"extensions":{
				"KHR_materials_specular":{
					"specularColorFactor":[
						2.371357614441398,
						2.371357614441398,
						2.371357614441398
					]
				},
				"KHR_materials_ior":{
					"ior":1.4500000476837158
				}
			},
			"name":"Material #26",
			"pbrMetallicRoughness":{
				"baseColorTexture":{
					"index":2
				},
				"metallicFactor":0,
				"roughnessFactor":0.5527864098548889
			}
		},
		{
			"doubleSided":true,
			"extensions":{
				"KHR_materials_specular":{
					"specularColorFactor":[
						2.371357614441398,
						2.371357614441398,
						2.371357614441398
					]
				},
				"KHR_materials_ior":{
					"ior":1.4500000476837158
				}
			},
			"name":"Material #30",
			"pbrMetallicRoughness":{
				"baseColorTexture":{
					"index":3
				},
				"metallicFactor":0,
				"roughnessFactor":0.5527864098548889
			}
		},
		{
			"doubleSided":true,
			"extensions":{
				"KHR_materials_specular":{
					"specularColorFactor":[
						2.371357614441398,
						2.371357614441398,
						2.371357614441398
					]
				},
				"KHR_materials_ior":{
					"ior":1.4500000476837158
				}
			},
			"name":"Material #27",
			"pbrMetallicRoughness":{
				"baseColorFactor":[
					0.03921568766236305,
					0.03921568766236305,
					0.03921568766236305,
					1
				],
				"metallicFactor":0,
				"roughnessFactor":0.5527864098548889
			}
		}
	],
	"meshes":[
		{
			"name":"\u30e1\u30c3\u30b7\u30e5.054",
			"primitives":[
				{
					"attributes":{
						"POSITION":0,
						"TEXCOORD_0":1,
						"TEXCOORD_1":2,
						"NORMAL":3
					},
					"indices":4,
					"material":0
				},
				{
					"attributes":{
						"POSITION":5,
						"TEXCOORD_0":6,
						"TEXCOORD_1":7,
						"NORMAL":8
					},
					"indices":9,
					"material":1
				},
				{
					"attributes":{
						"POSITION":10,
						"TEXCOORD_0":11,
						"TEXCOORD_1":12,
						"NORMAL":13
					},
					"indices":14,
					"material":2
				},
				{
					"attributes":{
						"POSITION":15,
						"TEXCOORD_0":16,
						"TEXCOORD_1":17,
						"NORMAL":18
					},
					"indices":19,
					"material":3
				},
				{
					"attributes":{
						"POSITION":20,
						"TEXCOORD_0":21,
						"TEXCOORD_1":22,
						"NORMAL":23
					},
					"indices":24,
					"material":4
				}
			]
		}
	],
	"textures":[
		{
			"sampler":0,
			"source":0
		},
		{
			"sampler":0,
			"source":1
		},
		{
			"sampler":0,
			"source":2
		},
		{
			"sampler":0,
			"source":3
		}
	],
	"images":[
		{
			"mimeType":"image/png",
			"name":"Textura suelo",
			"uri":"Textura suelo.png"
		},
		{
			"mimeType":"image/jpeg",
			"name":"stone-texture-74",
			"uri":"stone-texture-74.jpg"
		},
		{
			"mimeType":"image/png",
			"name":"Reja",
			"uri":"Reja.png"
		},
		{
			"mimeType":"image/jpeg",
			"name":"Stone Ring",
			"uri":"Stone Ring.jpg"
		}
	],
	"accessors":[
		{
			"bufferView":0,
			"componentType":5126,
			"count":4768,
			"max":[
				246.1939697265625,
				6.500000953674316,
				246.1939697265625
			],
			"min":[
				-246.1939697265625,
				-54.255733489990234,
				-246.1939697265625
			],
			"type":"VEC3"
		},
		{
			"bufferView":1,
			"componentType":5126,
			"count":4768,
			"type":"VEC2"
		},
		{
			"bufferView":2,
			"componentType":5126,
			"count":4768,
			"type":"VEC2"
		},
		{
			"bufferView":3,
			"componentType":5126,
			"count":4768,
			"type":"VEC3"
		},
		{
			"bufferView":4,
			"componentType":5123,
			"count":10080,
			"type":"SCALAR"
		},
		{
			"bufferView":5,
			"componentType":5126,
			"count":84586,
			"max":[
				141.60867309570312,
				50.71310043334961,
				141.38235473632812
			],
			"min":[
				-141.64984130859375,
				-51.21996307373047,
				-141.87615966796875
			],
			"type":"VEC3"
		},
		{
			"bufferView":6,
			"componentType":5126,
			"count":84586,
			"type":"VEC2"
		},
		{
			"bufferView":7,
			"componentType":5126,
			"count":84586,
			"type":"VEC2"
		},
		{
			"bufferView":8,
			"componentType":5126,
			"count":84586,
			"type":"VEC3"
		},
		{
			"bufferView":9,
			"componentType":5125,
			"count":102222,
			"type":"SCALAR"
		},
		{
			"bufferView":10,
			"componentType":5126,
			"count":694,
			"max":[
				107.01051330566406,
				20.019702911376953,
				107.01602172851562
			],
			"min":[
				-107.02152252197266,
				-29.499998092651367,
				-107.01602172851562
			],
			"type":"VEC3"
		},
		{
			"bufferView":11,
			"componentType":5126,
			"count":694,
			"type":"VEC2"
		},
		{
			"bufferView":12,
			"componentType":5126,
			"count":694,
			"type":"VEC2"
		},
		{
			"bufferView":13,
			"componentType":5126,
			"count":694,
			"type":"VEC3"
		},
		{
			"bufferView":14,
			"componentType":5123,
			"count":990,
			"type":"SCALAR"
		},
		{
			"bufferView":15,
			"componentType":5126,
			"count":136,
			"max":[
				141.4519805908203,
				-28.5,
				141.22564697265625
			],
			"min":[
				-141.49313354492188,
				-48.88957595825195,
				-141.71946716308594
			],
			"type":"VEC3"
		},
		{
			"bufferView":16,
			"componentType":5126,
			"count":136,
			"type":"VEC2"
		},
		{
			"bufferView":17,
			"componentType":5126,
			"count":136,
			"type":"VEC2"
		},
		{
			"bufferView":18,
			"componentType":5126,
			"count":136,
			"type":"VEC3"
		},
		{
			"bufferView":19,
			"componentType":5123,
			"count":228,
			"type":"SCALAR"
		},
		{
			"bufferView":20,
			"componentType":5126,
			"count":2488,
			"max":[
				23.466434478759766,
				-1.8094122409820557,
				23.471994400024414
			],
			"min":[
				-23.4775447845459,
				-29.499998092651367,
				-23.47198486328125
			],
			"type":"VEC3"
		},
		{
			"bufferView":21,
			"componentType":5126,
			"count":2488,
			"type":"VEC2"
		},
		{
			"bufferView":22,
			"componentType":5126,
			"count":2488,
			"type":"VEC2"
		},
		{
			"bufferView":23,
			"componentType":5126,
			"count":2488,
			"type":"VEC3"
		},
		{
			"bufferView":24,
			"componentType":5123,
			"count":7062,
			"type":"SCALAR"
		}
	],
	"bufferViews":[
		{
			"buffer":0,
			"byteLength":57216,
			"byteOffset":0,
			"target":34962
		},
		{
			"buffer":0,
			"byteLength":38144,
			"byteOffset":57216,
			"target":34962
		},
		{
			"buffer":0,
			"byteLength":38144,
			"byteOffset":95360,
			"target":34962
		},
		{
			"buffer":0,
			"byteLength":57216,
			"byteOffset":133504,
			"target":34962
		},
		{
			"buffer":0,
			"byteLength":20160,
			"byteOffset":190720,
			"target":34963
		},
		{
			"buffer":0,
			"byteLength":1015032,
			"byteOffset":210880,
			"target":34962
		},
		{
			"buffer":0,
			"byteLength":676688,
			"byteOffset":1225912,
			"target":34962
		},
		{
			"buffer":0,
			"byteLength":676688,
			"byteOffset":1902600,
			"target":34962
		},
		{
			"buffer":0,
			"byteLength":1015032,
			"byteOffset":2579288,
			"target":34962
		},
		{
			"buffer":0,
			"byteLength":408888,
			"byteOffset":3594320,
			"target":34963
		},
		{
			"buffer":0,
			"byteLength":8328,
			"byteOffset":4003208,
			"target":34962
		},
		{
			"buffer":0,
			"byteLength":5552,
			"byteOffset":4011536,
			"target":34962
		},
		{
			"buffer":0,
			"byteLength":5552,
			"byteOffset":4017088,
			"target":34962
		},
		{
			"buffer":0,
			"byteLength":8328,
			"byteOffset":4022640,
			"target":34962
		},
		{
			"buffer":0,
			"byteLength":1980,
			"byteOffset":4030968,
			"target":34963
		},
		{
			"buffer":0,
			"byteLength":1632,
			"byteOffset":4032948,
			"target":34962
		},
		{
			"buffer":0,
			"byteLength":1088,
			"byteOffset":4034580,
			"target":34962
		},
		{
			"buffer":0,
			"byteLength":1088,
			"byteOffset":4035668,
			"target":34962
		},
		{
			"buffer":0,
			"byteLength":1632,
			"byteOffset":4036756,
			"target":34962
		},
		{
			"buffer":0,
			"byteLength":456,
			"byteOffset":4038388,
			"target":34963
		},
		{
			"buffer":0,
			"byteLength":29856,
			"byteOffset":4038844,
			"target":34962
		},
		{
			"buffer":0,
			"byteLength":19904,
			"byteOffset":4068700,
			"target":34962
		},
		{
			"buffer":0,
			"byteLength":19904,
			"byteOffset":4088604,
			"target":34962
		},
		{
			"buffer":0,
			"byteLength":29856,
			"byteOffset":4108508,
			"target":34962
		},
		{
			"buffer":0,
			"byteLength":14124,
			"byteOffset":4138364,
			"target":34963
		}
	],
	"samplers":[
		{
			"magFilter":9729,
			"minFilter":9987
		}
	],
	"buffers":[
		{
			"byteLength":4152488,
			"uri":"ground_1.bin"
		}
	]
}
