{
	"asset":{
		"generator":"Khronos glTF Blender I/O v3.5.30",
		"version":"2.0"
	},
	"scene":0,
	"scenes":[
		{
			"name":"Scene",
			"nodes":[
				5
			]
		}
	],
	"nodes":[
		{
			"name":"Bone.002",
			"rotation":[
				4.930380657631324e-30,
				-1.1368683772161603e-13,
				0,
				1
			],
			"translation":[
				-4.0136596908268984e-06,
				2.692737579345703,
				1.332547903060913
			]
		},
		{
			"name":"Bone.003",
			"rotation":[
				4.930380657631324e-30,
				-1.1368683772161603e-13,
				0,
				1
			],
			"translation":[
				3.9479082261095755e-06,
				2.6838302612304688,
				-1.3107184171676636
			]
		},
		{
			"children":[
				0,
				1
			],
			"name":"Bone.001",
			"rotation":[
				-1.506009311924572e-06,
				2.0390610468962239e-22,
				1,
				1.353949740705987e-16
			],
			"translation":[
				0,
				2.9648799896240234,
				0
			]
		},
		{
			"name":"Bone.004",
			"translation":[
				0,
				2.9648799896240234,
				0
			]
		},
		{
			"mesh":0,
			"name":"\u7acb\u65b9\u4f53",
			"skin":0
		},
		{
			"children":[
				4,
				2,
				3
			],
			"name":"\u30a2\u30fc\u30de\u30c1\u30e5\u30a2",
			"rotation":[
				0,
				0.7071068286895752,
				0,
				0.7071068286895752
			],
			"scale":[
				0.177893728017807,
				0.177893728017807,
				0.177893728017807
			]
		}
	],
	"animations":[
		{
			"channels":[
				{
					"sampler":0,
					"target":{
						"node":2,
						"path":"translation"
					}
				},
				{
					"sampler":1,
					"target":{
						"node":2,
						"path":"rotation"
					}
				},
				{
					"sampler":2,
					"target":{
						"node":2,
						"path":"scale"
					}
				},
				{
					"sampler":3,
					"target":{
						"node":0,
						"path":"translation"
					}
				},
				{
					"sampler":4,
					"target":{
						"node":0,
						"path":"rotation"
					}
				},
				{
					"sampler":5,
					"target":{
						"node":0,
						"path":"scale"
					}
				},
				{
					"sampler":6,
					"target":{
						"node":1,
						"path":"translation"
					}
				},
				{
					"sampler":7,
					"target":{
						"node":1,
						"path":"rotation"
					}
				},
				{
					"sampler":8,
					"target":{
						"node":1,
						"path":"scale"
					}
				},
				{
					"sampler":9,
					"target":{
						"node":3,
						"path":"translation"
					}
				},
				{
					"sampler":10,
					"target":{
						"node":3,
						"path":"rotation"
					}
				},
				{
					"sampler":11,
					"target":{
						"node":3,
						"path":"scale"
					}
				}
			],
			"name":"\u30a2\u30fc\u30de\u30c1\u30e5\u30a2Action",
			"samplers":[
				{
					"input":7,
					"interpolation":"LINEAR",
					"output":8
				},
				{
					"input":7,
					"interpolation":"LINEAR",
					"output":9
				},
				{
					"input":7,
					"interpolation":"LINEAR",
					"output":10
				},
				{
					"input":7,
					"interpolation":"LINEAR",
					"output":11
				},
				{
					"input":7,
					"interpolation":"LINEAR",
					"output":12
				},
				{
					"input":7,
					"interpolation":"LINEAR",
					"output":13
				},
				{
					"input":7,
					"interpolation":"LINEAR",
					"output":14
				},
				{
					"input":7,
					"interpolation":"LINEAR",
					"output":15
				},
				{
					"input":7,
					"interpolation":"LINEAR",
					"output":16
				},
				{
					"input":7,
					"interpolation":"LINEAR",
					"output":17
				},
				{
					"input":7,
					"interpolation":"LINEAR",
					"output":18
				},
				{
					"input":7,
					"interpolation":"LINEAR",
					"output":19
				}
			]
		}
	],
	"materials":[
		{
			"doubleSided":true,
			"name":"\u30de\u30c6\u30ea\u30a2\u30eb",
			"pbrMetallicRoughness":{
				"baseColorTexture":{
					"index":0
				},
				"metallicFactor":0,
				"roughnessFactor":0.5
			}
		}
	],
	"meshes":[
		{
			"name":"\u7acb\u65b9\u4f53.001",
			"primitives":[
				{
					"attributes":{
						"POSITION":0,
						"TEXCOORD_0":1,
						"NORMAL":2,
						"JOINTS_0":3,
						"WEIGHTS_0":4
					},
					"indices":5,
					"material":0
				}
			]
		}
	],
	"textures":[
		{
			"sampler":0,
			"source":0
		}
	],
	"images":[
		{
			"mimeType":"image/png",
			"name":"white1x1.png",
			"uri":"white1x1.png"
		}
	],
	"skins":[
		{
			"inverseBindMatrices":6,
			"joints":[
				2,
				0,
				1,
				3
			],
			"name":"\u30a2\u30fc\u30de\u30c1\u30e5\u30a2"
		}
	],
	"accessors":[
		{
			"bufferView":0,
			"componentType":5126,
			"count":96,
			"max":[
				0.3220730423927307,
				0.9550858736038208,
				0.2041693478822708
			],
			"min":[
				-0.3220730423927307,
				-0.04902871325612068,
				-0.2041693478822708
			],
			"type":"VEC3"
		},
		{
			"bufferView":1,
			"componentType":5126,
			"count":96,
			"type":"VEC2"
		},
		{
			"bufferView":2,
			"componentType":5126,
			"count":96,
			"type":"VEC3"
		},
		{
			"bufferView":3,
			"componentType":5121,
			"count":96,
			"type":"VEC4"
		},
		{
			"bufferView":4,
			"componentType":5126,
			"count":96,
			"type":"VEC4"
		},
		{
			"bufferView":5,
			"componentType":5123,
			"count":144,
			"type":"SCALAR"
		},
		{
			"bufferView":6,
			"componentType":5126,
			"count":4,
			"type":"MAT4"
		},
		{
			"bufferView":7,
			"componentType":5126,
			"count":61,
			"max":[
				1
			],
			"min":[
				0
			],
			"type":"SCALAR"
		},
		{
			"bufferView":8,
			"componentType":5126,
			"count":61,
			"type":"VEC3"
		},
		{
			"bufferView":9,
			"componentType":5126,
			"count":61,
			"type":"VEC4"
		},
		{
			"bufferView":10,
			"componentType":5126,
			"count":61,
			"type":"VEC3"
		},
		{
			"bufferView":11,
			"componentType":5126,
			"count":61,
			"type":"VEC3"
		},
		{
			"bufferView":12,
			"componentType":5126,
			"count":61,
			"type":"VEC4"
		},
		{
			"bufferView":13,
			"componentType":5126,
			"count":61,
			"type":"VEC3"
		},
		{
			"bufferView":14,
			"componentType":5126,
			"count":61,
			"type":"VEC3"
		},
		{
			"bufferView":15,
			"componentType":5126,
			"count":61,
			"type":"VEC4"
		},
		{
			"bufferView":16,
			"componentType":5126,
			"count":61,
			"type":"VEC3"
		},
		{
			"bufferView":17,
			"componentType":5126,
			"count":61,
			"type":"VEC3"
		},
		{
			"bufferView":18,
			"componentType":5126,
			"count":61,
			"type":"VEC4"
		},
		{
			"bufferView":19,
			"componentType":5126,
			"count":61,
			"type":"VEC3"
		}
	],
	"bufferViews":[
		{
			"buffer":0,
			"byteLength":1152,
			"byteOffset":0,
			"target":34962
		},
		{
			"buffer":0,
			"byteLength":768,
			"byteOffset":1152,
			"target":34962
		},
		{
			"buffer":0,
			"byteLength":1152,
			"byteOffset":1920,
			"target":34962
		},
		{
			"buffer":0,
			"byteLength":384,
			"byteOffset":3072,
			"target":34962
		},
		{
			"buffer":0,
			"byteLength":1536,
			"byteOffset":3456,
			"target":34962
		},
		{
			"buffer":0,
			"byteLength":288,
			"byteOffset":4992,
			"target":34963
		},
		{
			"buffer":0,
			"byteLength":256,
			"byteOffset":5280
		},
		{
			"buffer":0,
			"byteLength":244,
			"byteOffset":5536
		},
		{
			"buffer":0,
			"byteLength":732,
			"byteOffset":5780
		},
		{
			"buffer":0,
			"byteLength":976,
			"byteOffset":6512
		},
		{
			"buffer":0,
			"byteLength":732,
			"byteOffset":7488
		},
		{
			"buffer":0,
			"byteLength":732,
			"byteOffset":8220
		},
		{
			"buffer":0,
			"byteLength":976,
			"byteOffset":8952
		},
		{
			"buffer":0,
			"byteLength":732,
			"byteOffset":9928
		},
		{
			"buffer":0,
			"byteLength":732,
			"byteOffset":10660
		},
		{
			"buffer":0,
			"byteLength":976,
			"byteOffset":11392
		},
		{
			"buffer":0,
			"byteLength":732,
			"byteOffset":12368
		},
		{
			"buffer":0,
			"byteLength":732,
			"byteOffset":13100
		},
		{
			"buffer":0,
			"byteLength":976,
			"byteOffset":13832
		},
		{
			"buffer":0,
			"byteLength":732,
			"byteOffset":14808
		}
	],
	"samplers":[
		{
			"magFilter":9729,
			"minFilter":9987
		}
	],
	"buffers":[
		{
			"byteLength":15540,
			"uri":"player.bin"
		}
	]
}
